G04 #@! TF.FileFunction,Copper,L4,Bot,Signal*
%FSLAX46Y46*%
G04 Gerber Fmt 4.6, Leading zero omitted, Abs format (unit mm)*
G04 Created by KiCad (PCBNEW 4.0.1-stable) date 27/01/2016 21:23:12*
%MOMM*%
G01*
G04 APERTURE LIST*
%ADD10C,0.100000*%
%ADD11R,0.600000X0.400000*%
%ADD12R,4.500000X1.000000*%
%ADD13R,3.400000X1.500000*%
%ADD14R,0.600000X0.500000*%
%ADD15R,0.500000X0.600000*%
%ADD16R,0.750000X0.800000*%
%ADD17C,1.500000*%
%ADD18C,1.000000*%
%ADD19R,0.400000X0.600000*%
%ADD20R,1.500000X1.000000*%
%ADD21R,0.300000X1.000000*%
%ADD22R,1.000000X0.300000*%
%ADD23C,0.600000*%
%ADD24C,0.800000*%
%ADD25C,0.150000*%
%ADD26C,0.280000*%
%ADD27C,0.400000*%
%ADD28C,0.180000*%
%ADD29C,0.300000*%
%ADD30C,0.254000*%
%ADD31C,0.250000*%
G04 APERTURE END LIST*
D10*
D11*
X68700000Y-61750000D03*
X68700000Y-60850000D03*
D12*
X58100000Y-52680000D03*
X58100000Y-50680000D03*
D13*
X53050000Y-54280000D03*
X53050000Y-49080000D03*
D14*
X79300000Y-56500000D03*
X78200000Y-56500000D03*
D15*
X76000000Y-53950000D03*
X76000000Y-55050000D03*
X67200000Y-60750000D03*
X67200000Y-61850000D03*
X71200000Y-52850000D03*
X71200000Y-53950000D03*
D14*
X73325000Y-55950000D03*
X74425000Y-55950000D03*
X73325000Y-57150000D03*
X74425000Y-57150000D03*
D16*
X55725000Y-60800000D03*
X55725000Y-62300000D03*
X70000000Y-60850000D03*
X70000000Y-62350000D03*
D17*
X87100000Y-48925000D03*
X85100000Y-48925000D03*
D18*
X61025000Y-62350000D03*
X61025000Y-61080000D03*
X61025000Y-59810000D03*
X61025000Y-58540000D03*
X61025000Y-57270000D03*
X61025000Y-56000000D03*
D11*
X72600000Y-52950000D03*
X72600000Y-53850000D03*
D19*
X67150000Y-53300000D03*
X68050000Y-53300000D03*
X58550000Y-60000000D03*
X59450000Y-60000000D03*
D20*
X77500000Y-53850000D03*
X77500000Y-55150000D03*
X79500000Y-53850000D03*
X79500000Y-55150000D03*
D10*
G36*
X65750000Y-54550000D02*
X66050000Y-54550000D01*
X66000000Y-55550000D01*
X65800000Y-55550000D01*
X65750000Y-54550000D01*
X65750000Y-54550000D01*
G37*
D21*
X66400000Y-55050000D03*
X66900000Y-55050000D03*
X67400000Y-55050000D03*
X67900000Y-55050000D03*
X68400000Y-55050000D03*
D10*
G36*
X68750000Y-54550000D02*
X69050000Y-54550000D01*
X69000000Y-55550000D01*
X68800000Y-55550000D01*
X68750000Y-54550000D01*
X68750000Y-54550000D01*
G37*
G36*
X70150000Y-55650000D02*
X70150000Y-55950000D01*
X69150000Y-55900000D01*
X69150000Y-55700000D01*
X70150000Y-55650000D01*
X70150000Y-55650000D01*
G37*
D22*
X69650000Y-56300000D03*
X69650000Y-56800000D03*
X69650000Y-57300000D03*
X69650000Y-57800000D03*
X69650000Y-58300000D03*
D10*
G36*
X70150000Y-58650000D02*
X70150000Y-58950000D01*
X69150000Y-58900000D01*
X69150000Y-58700000D01*
X70150000Y-58650000D01*
X70150000Y-58650000D01*
G37*
G36*
X69050000Y-60050000D02*
X68750000Y-60050000D01*
X68800000Y-59050000D01*
X69000000Y-59050000D01*
X69050000Y-60050000D01*
X69050000Y-60050000D01*
G37*
D21*
X68400000Y-59550000D03*
X67900000Y-59550000D03*
X67400000Y-59550000D03*
X66900000Y-59550000D03*
X66400000Y-59550000D03*
D10*
G36*
X66050000Y-60050000D02*
X65750000Y-60050000D01*
X65800000Y-59050000D01*
X66000000Y-59050000D01*
X66050000Y-60050000D01*
X66050000Y-60050000D01*
G37*
G36*
X64650000Y-58950000D02*
X64650000Y-58650000D01*
X65650000Y-58700000D01*
X65650000Y-58900000D01*
X64650000Y-58950000D01*
X64650000Y-58950000D01*
G37*
D22*
X65150000Y-58300000D03*
X65150000Y-57800000D03*
X65150000Y-57300000D03*
X65150000Y-56800000D03*
X65150000Y-56300000D03*
D10*
G36*
X64650000Y-55950000D02*
X64650000Y-55650000D01*
X65650000Y-55700000D01*
X65650000Y-55900000D01*
X64650000Y-55950000D01*
X64650000Y-55950000D01*
G37*
D23*
X78000000Y-58000000D03*
X77250000Y-57500000D03*
X77250000Y-58750000D03*
X81000000Y-56000000D03*
X80500000Y-57000000D03*
X77260000Y-56530000D03*
X78155000Y-55805000D03*
D24*
X68520000Y-58260000D03*
D23*
X51700000Y-56850000D03*
D24*
X58225000Y-57625000D03*
D23*
X55475000Y-57550000D03*
D24*
X53420000Y-56060000D03*
D23*
X57400000Y-57725000D03*
X83775000Y-48575000D03*
X88250000Y-53000000D03*
X88250000Y-52000000D03*
X88250000Y-50750000D03*
X88250000Y-49750000D03*
X88500000Y-49025000D03*
X86100000Y-49600000D03*
D24*
X77125000Y-51425000D03*
X73250000Y-49800000D03*
X73250000Y-49825000D03*
X60940000Y-51650000D03*
X55360000Y-55170000D03*
X56775000Y-55225000D03*
X53050000Y-57200000D03*
D23*
X55125000Y-61625000D03*
X52175000Y-63450000D03*
X74482500Y-62392500D03*
X87100000Y-62050000D03*
X79850000Y-62750000D03*
X75625000Y-59725000D03*
X80025000Y-58950000D03*
X79950000Y-57925000D03*
X80825000Y-57925000D03*
X79050000Y-57925000D03*
X78425000Y-58925000D03*
X79125000Y-58925000D03*
X80875000Y-58950000D03*
X74275000Y-56550000D03*
X59425000Y-54525000D03*
X58400000Y-51700000D03*
X58675000Y-54725000D03*
X58600000Y-55600000D03*
X64475000Y-54325000D03*
X59800000Y-58350000D03*
X59800000Y-59225000D03*
X54450000Y-63375000D03*
X85350000Y-60875000D03*
X84250000Y-60850000D03*
X88350000Y-63050000D03*
X88450000Y-61825000D03*
X88425000Y-60975000D03*
X88450000Y-59000000D03*
X87550000Y-59025000D03*
X85800000Y-58950000D03*
X82325000Y-59600000D03*
X83250000Y-59575000D03*
X84600000Y-59150000D03*
X88450000Y-56025000D03*
X87350000Y-58150000D03*
X88400000Y-58150000D03*
X87250000Y-56050000D03*
X86000000Y-55000000D03*
X87000000Y-55000000D03*
X88000000Y-55000000D03*
X84325000Y-55050000D03*
X84250000Y-52000000D03*
D24*
X82750000Y-53500000D03*
X81750000Y-53500000D03*
X81750000Y-52500000D03*
X82750000Y-52500000D03*
X84650000Y-51000000D03*
D23*
X82750000Y-49750000D03*
D24*
X78500000Y-48750000D03*
X79500000Y-48750000D03*
X80500000Y-48750000D03*
X81500000Y-48750000D03*
X82500000Y-48750000D03*
X77500000Y-48750000D03*
X76500000Y-48750000D03*
X75500000Y-48750000D03*
X74500000Y-48750000D03*
X73500000Y-48750000D03*
D23*
X72980000Y-51570000D03*
X69980000Y-54010000D03*
X72680000Y-61380000D03*
X68510000Y-62870000D03*
X69430000Y-62920000D03*
D24*
X54980000Y-51360000D03*
X52960000Y-51330000D03*
X61100000Y-50670000D03*
X61060000Y-49540000D03*
X60300000Y-48840000D03*
X59200000Y-48770000D03*
X59020000Y-49610000D03*
D23*
X64020000Y-62830000D03*
X74480000Y-58780000D03*
D24*
X86460000Y-58200000D03*
X82855000Y-62265000D03*
D23*
X80160000Y-50410000D03*
X74520000Y-52720000D03*
X69490000Y-53290000D03*
D24*
X61140000Y-54920000D03*
X55420000Y-59740000D03*
D23*
X73125000Y-56200000D03*
X73175000Y-57475000D03*
X79670000Y-61580000D03*
X67440000Y-56130000D03*
X65180000Y-59570000D03*
X66860000Y-56930000D03*
X57430000Y-58530000D03*
X53180000Y-59020000D03*
X63150000Y-60460000D03*
X58800000Y-61020000D03*
X53870000Y-59380000D03*
X64720000Y-55050000D03*
X67220000Y-58380000D03*
X66230000Y-57620000D03*
X71385000Y-62815000D03*
X74420000Y-55120000D03*
X73250000Y-55150000D03*
X77440000Y-62330000D03*
X78200000Y-62740000D03*
X79030000Y-62450000D03*
D24*
X52930000Y-52540000D03*
D23*
X78440000Y-52280000D03*
X77540000Y-52230000D03*
X73360000Y-53880000D03*
X73870000Y-57870000D03*
X75120000Y-54120000D03*
D25*
X59780000Y-55050000D02*
X59790000Y-55060000D01*
X78000000Y-58000000D02*
X77750000Y-58000000D01*
X77750000Y-58000000D02*
X77250000Y-57500000D01*
X78000000Y-58000000D02*
X77250000Y-58750000D01*
X80500000Y-57000000D02*
X80500000Y-56500000D01*
X80500000Y-56500000D02*
X81000000Y-56000000D01*
X80825000Y-57925000D02*
X80825000Y-57325000D01*
X80825000Y-57325000D02*
X80500000Y-57000000D01*
X79050000Y-57925000D02*
X78075000Y-57925000D01*
X78075000Y-57925000D02*
X78000000Y-58000000D01*
X78200000Y-56500000D02*
X77290000Y-56500000D01*
X77290000Y-56500000D02*
X77260000Y-56530000D01*
X78200000Y-55805000D02*
X78155000Y-55805000D01*
X78200000Y-56500000D02*
X78200000Y-55805000D01*
X78200000Y-55805000D02*
X78200000Y-55850000D01*
X78200000Y-55850000D02*
X77500000Y-55150000D01*
X76000000Y-55050000D02*
X77400000Y-55050000D01*
X77400000Y-55050000D02*
X77500000Y-55150000D01*
D26*
X68400000Y-59550000D02*
X68400000Y-58380000D01*
X68400000Y-58380000D02*
X68520000Y-58260000D01*
D27*
X53985000Y-56060000D02*
X55475000Y-57550000D01*
X53985000Y-56060000D02*
X53420000Y-56060000D01*
D28*
X57225000Y-57550000D02*
X55475000Y-57550000D01*
X57400000Y-57725000D02*
X57225000Y-57550000D01*
X82500000Y-48750000D02*
X83600000Y-48750000D01*
X83600000Y-48750000D02*
X83775000Y-48575000D01*
X88250000Y-49750000D02*
X88250000Y-49275000D01*
D25*
X88250000Y-53000000D02*
X88250000Y-52000000D01*
X88250000Y-50750000D02*
X88250000Y-49750000D01*
D28*
X88250000Y-49275000D02*
X88500000Y-49025000D01*
D29*
X73250000Y-49825000D02*
X73250000Y-49800000D01*
D27*
X59540000Y-51650000D02*
X60940000Y-51650000D01*
X58570000Y-50680000D02*
X59540000Y-51650000D01*
D29*
X55360000Y-55170000D02*
X56720000Y-55170000D01*
X56720000Y-55170000D02*
X56775000Y-55225000D01*
D25*
X55725000Y-62300000D02*
X55725000Y-62225000D01*
X55725000Y-62225000D02*
X55125000Y-61625000D01*
X54450000Y-63375000D02*
X52250000Y-63375000D01*
X52250000Y-63375000D02*
X52175000Y-63450000D01*
X74482500Y-62392500D02*
X74475000Y-62400000D01*
X81750000Y-54425000D02*
X81750000Y-53500000D01*
X81675000Y-54500000D02*
X81750000Y-54425000D01*
X79050000Y-57925000D02*
X79950000Y-57925000D01*
X79950000Y-57925000D02*
X80825000Y-57925000D01*
X79125000Y-58925000D02*
X78425000Y-58925000D01*
X80875000Y-58950000D02*
X80025000Y-58950000D01*
X80025000Y-58950000D02*
X79150000Y-58950000D01*
X79150000Y-58950000D02*
X79125000Y-58925000D01*
X79050000Y-58075000D02*
X79050000Y-58375000D01*
X79050000Y-57925000D02*
X79050000Y-58075000D01*
X79625000Y-58950000D02*
X80875000Y-58950000D01*
X79050000Y-58375000D02*
X79625000Y-58950000D01*
X74425000Y-56625000D02*
X74350000Y-56625000D01*
X74350000Y-56625000D02*
X74275000Y-56550000D01*
X74425000Y-55950000D02*
X74425000Y-56625000D01*
X74425000Y-56625000D02*
X74425000Y-57150000D01*
X58550000Y-60000000D02*
X58550000Y-59525000D01*
X59800000Y-58350000D02*
X59800000Y-59225000D01*
X58850000Y-59225000D02*
X59800000Y-59225000D01*
X58550000Y-59525000D02*
X58850000Y-59225000D01*
X55725000Y-62300000D02*
X55525000Y-62300000D01*
X55525000Y-62300000D02*
X54450000Y-63375000D01*
X85350000Y-60875000D02*
X84275000Y-60875000D01*
X84275000Y-60875000D02*
X84250000Y-60850000D01*
X88350000Y-63050000D02*
X87700000Y-63700000D01*
X88450000Y-61000000D02*
X88450000Y-61825000D01*
X88425000Y-60975000D02*
X88450000Y-61000000D01*
X87575000Y-59000000D02*
X88450000Y-59000000D01*
X87550000Y-59025000D02*
X87575000Y-59000000D01*
X83225000Y-59600000D02*
X82325000Y-59600000D01*
X83250000Y-59575000D02*
X83225000Y-59600000D01*
X88475000Y-57075000D02*
X88475000Y-58075000D01*
X88450000Y-56025000D02*
X88475000Y-56050000D01*
X88475000Y-56050000D02*
X88475000Y-57075000D01*
X88475000Y-58075000D02*
X88400000Y-58150000D01*
X87250000Y-56050000D02*
X87250000Y-56000000D01*
X85950000Y-55050000D02*
X86000000Y-55000000D01*
X87000000Y-55000000D02*
X88000000Y-55000000D01*
X84325000Y-55050000D02*
X85950000Y-55050000D01*
D26*
X84250000Y-52000000D02*
X83250000Y-52000000D01*
X82750000Y-53500000D02*
X82750000Y-54250000D01*
X81750000Y-52500000D02*
X81750000Y-53500000D01*
X83250000Y-52000000D02*
X82750000Y-52500000D01*
X84650000Y-51000000D02*
X84750000Y-51000000D01*
D29*
X79500000Y-48750000D02*
X80500000Y-48750000D01*
D26*
X81500000Y-48750000D02*
X82500000Y-48750000D01*
X75500000Y-48750000D02*
X76500000Y-48750000D01*
X73500000Y-48750000D02*
X74500000Y-48750000D01*
X77500000Y-48750000D02*
X78500000Y-48750000D01*
X70160000Y-54010000D02*
X70220000Y-53950000D01*
X70220000Y-53950000D02*
X70160000Y-54010000D01*
X70220000Y-53950000D02*
X70040000Y-53950000D01*
X70040000Y-53950000D02*
X69980000Y-54010000D01*
X71200000Y-53950000D02*
X70220000Y-53950000D01*
X69430000Y-62920000D02*
X70000000Y-62350000D01*
X68560000Y-62920000D02*
X69430000Y-62920000D01*
X68510000Y-62870000D02*
X68560000Y-62920000D01*
D27*
X58100000Y-50680000D02*
X58570000Y-50680000D01*
X58100000Y-50680000D02*
X61090000Y-50680000D01*
X61090000Y-50680000D02*
X61100000Y-50670000D01*
X61060000Y-49540000D02*
X60360000Y-48840000D01*
X60360000Y-48840000D02*
X60300000Y-48840000D01*
X59200000Y-48770000D02*
X59020000Y-48950000D01*
X59020000Y-48950000D02*
X59020000Y-49610000D01*
D25*
X67400000Y-59550000D02*
X67400000Y-60550000D01*
X67400000Y-60550000D02*
X67200000Y-60750000D01*
D27*
X63900000Y-62710000D02*
X63900000Y-62350000D01*
X64020000Y-62830000D02*
X63900000Y-62710000D01*
X63900000Y-62350000D02*
X64540000Y-62350000D01*
X61025000Y-62350000D02*
X63900000Y-62350000D01*
X66480000Y-60750000D02*
X67200000Y-60750000D01*
X64950000Y-62280000D02*
X64850000Y-62280000D01*
X66480000Y-60750000D02*
X64950000Y-62280000D01*
X64610000Y-62280000D02*
X64850000Y-62280000D01*
X64540000Y-62350000D02*
X64610000Y-62280000D01*
D26*
X71200000Y-52850000D02*
X72500000Y-52850000D01*
X72500000Y-52850000D02*
X72600000Y-52950000D01*
X68050000Y-53300000D02*
X68890000Y-53300000D01*
X68890000Y-53300000D02*
X68900000Y-53290000D01*
X68900000Y-53290000D02*
X69490000Y-53290000D01*
X70760000Y-53290000D02*
X71200000Y-52850000D01*
X69490000Y-53290000D02*
X70760000Y-53290000D01*
D27*
X61025000Y-62350000D02*
X58920000Y-62350000D01*
X56310000Y-59740000D02*
X55420000Y-59740000D01*
X58920000Y-62350000D02*
X56310000Y-59740000D01*
D28*
X55420000Y-59700000D02*
X55420000Y-59740000D01*
X55420000Y-59740000D02*
X55420000Y-59700000D01*
X55725000Y-60800000D02*
X55725000Y-60045000D01*
X55725000Y-60045000D02*
X55420000Y-59740000D01*
D25*
X67760000Y-60750000D02*
X68600000Y-60750000D01*
X68600000Y-60750000D02*
X68700000Y-60850000D01*
D30*
X67900000Y-59550000D02*
X67900000Y-60610000D01*
X67760000Y-60750000D02*
X67200000Y-60750000D01*
D25*
X67900000Y-60610000D02*
X67760000Y-60750000D01*
X67900000Y-55050000D02*
X67900000Y-53450000D01*
X67900000Y-53450000D02*
X68050000Y-53300000D01*
X72575000Y-55800000D02*
X73175000Y-55800000D01*
X73175000Y-55800000D02*
X73325000Y-55950000D01*
X73325000Y-55950000D02*
X73325000Y-56000000D01*
X73325000Y-56000000D02*
X73125000Y-56200000D01*
X69650000Y-55800000D02*
X72575000Y-55800000D01*
X72575000Y-55800000D02*
X72580000Y-55800000D01*
X72150000Y-56300000D02*
X72475000Y-56300000D01*
X72475000Y-56300000D02*
X73325000Y-57150000D01*
X73325000Y-57150000D02*
X73325000Y-57400000D01*
X73325000Y-57400000D02*
X73250000Y-57475000D01*
X73250000Y-57475000D02*
X73175000Y-57475000D01*
X72210000Y-56300000D02*
X72150000Y-56300000D01*
X72150000Y-56300000D02*
X69650000Y-56300000D01*
X69650000Y-56800000D02*
X71740000Y-56800000D01*
X78190000Y-61580000D02*
X79670000Y-61580000D01*
X76520000Y-61580000D02*
X78190000Y-61580000D01*
X71740000Y-56800000D02*
X76520000Y-61580000D01*
X67440000Y-56130000D02*
X67400000Y-56090000D01*
X67400000Y-56090000D02*
X67400000Y-55050000D01*
X63670000Y-61080000D02*
X65180000Y-59570000D01*
X61025000Y-61080000D02*
X63670000Y-61080000D01*
X67400000Y-55050000D02*
X67400000Y-53550000D01*
X67400000Y-53550000D02*
X67150000Y-53300000D01*
X59450000Y-60000000D02*
X60835000Y-60000000D01*
X60835000Y-60000000D02*
X61025000Y-59810000D01*
X65900000Y-55050000D02*
X65900000Y-56330000D01*
X66500000Y-56930000D02*
X66860000Y-56930000D01*
X65900000Y-56330000D02*
X66500000Y-56930000D01*
X53270000Y-59020000D02*
X53500000Y-58790000D01*
X53500000Y-58790000D02*
X57170000Y-58790000D01*
X57170000Y-58790000D02*
X57430000Y-58530000D01*
X53180000Y-59020000D02*
X53270000Y-59020000D01*
X53190000Y-59010000D02*
X53190000Y-58940000D01*
X53180000Y-59020000D02*
X53190000Y-59010000D01*
X65150000Y-56300000D02*
X64350000Y-56300000D01*
X63150000Y-60130000D02*
X63150000Y-60460000D01*
X63890000Y-59390000D02*
X63150000Y-60130000D01*
X63890000Y-56760000D02*
X63890000Y-59390000D01*
X64350000Y-56300000D02*
X63890000Y-56760000D01*
X58500000Y-61020000D02*
X58800000Y-61020000D01*
X53870000Y-59380000D02*
X53870000Y-59130000D01*
X53900000Y-59100000D02*
X57160000Y-59100000D01*
X53870000Y-59130000D02*
X53900000Y-59100000D01*
X57160000Y-59680000D02*
X58500000Y-61020000D01*
X58500000Y-61020000D02*
X58510000Y-61030000D01*
X57160000Y-59100000D02*
X57160000Y-59680000D01*
X64720000Y-55050000D02*
X65150000Y-55480000D01*
X65150000Y-55480000D02*
X65150000Y-55800000D01*
X68900000Y-59550000D02*
X68900000Y-59750000D01*
X68900000Y-59750000D02*
X70000000Y-60850000D01*
X68700000Y-61750000D02*
X69100000Y-61750000D01*
X69100000Y-61750000D02*
X70000000Y-60850000D01*
X65900000Y-58994266D02*
X66514266Y-58380000D01*
X66514266Y-58380000D02*
X67220000Y-58380000D01*
X65900000Y-59550000D02*
X65900000Y-58994266D01*
X65150000Y-58800000D02*
X65670000Y-58800000D01*
X66230000Y-58240000D02*
X66230000Y-57620000D01*
X66230000Y-57620000D02*
X66230000Y-57600000D01*
X65670000Y-58800000D02*
X66230000Y-58240000D01*
X71490000Y-62720000D02*
X71480000Y-62720000D01*
X71620000Y-62590000D02*
X71490000Y-62720000D01*
X69650000Y-58800000D02*
X70180000Y-58800000D01*
X71620000Y-60240000D02*
X71620000Y-62430000D01*
X70180000Y-58800000D02*
X71620000Y-60240000D01*
X71620000Y-62430000D02*
X71620000Y-62590000D01*
X71480000Y-62720000D02*
X71385000Y-62815000D01*
X71385000Y-62815000D02*
X71380000Y-62820000D01*
X71190000Y-54609998D02*
X73779998Y-54609998D01*
X74290000Y-55120000D02*
X74420000Y-55120000D01*
X73779998Y-54609998D02*
X74290000Y-55120000D01*
X68400000Y-55050000D02*
X68400000Y-54530000D01*
X69550000Y-54609998D02*
X71190000Y-54609998D01*
X71190000Y-54609998D02*
X71200000Y-54609998D01*
X69240002Y-54300000D02*
X69550000Y-54609998D01*
X68630000Y-54300000D02*
X69240002Y-54300000D01*
X68400000Y-54530000D02*
X68630000Y-54300000D01*
X73250000Y-55150000D02*
X73000000Y-54910000D01*
X73000000Y-54910000D02*
X69040000Y-54910000D01*
X69040000Y-54910000D02*
X68900000Y-55050000D01*
X69650000Y-57300000D02*
X71580000Y-57300000D01*
X76610000Y-62330000D02*
X77440000Y-62330000D01*
X71580000Y-57300000D02*
X76610000Y-62330000D01*
X71264266Y-57800000D02*
X69650000Y-57800000D01*
X76464266Y-63000000D02*
X71264266Y-57800000D01*
X77940000Y-63000000D02*
X76464266Y-63000000D01*
X78200000Y-62740000D02*
X77940000Y-63000000D01*
X69650000Y-58300000D02*
X71340000Y-58300000D01*
X79030000Y-63180000D02*
X79030000Y-62450000D01*
X78810000Y-63400000D02*
X79030000Y-63180000D01*
X76440000Y-63400000D02*
X78810000Y-63400000D01*
X71340000Y-58300000D02*
X76440000Y-63400000D01*
D27*
X58100000Y-52680000D02*
X53070000Y-52680000D01*
X53070000Y-52680000D02*
X52930000Y-52540000D01*
D25*
X80540000Y-54780000D02*
X80540000Y-52910000D01*
X80540000Y-52910000D02*
X79910000Y-52280000D01*
X79910000Y-52280000D02*
X78440000Y-52280000D01*
X80540000Y-54780000D02*
X80170000Y-55150000D01*
X79500000Y-55150000D02*
X80170000Y-55150000D01*
X79300000Y-56500000D02*
X79300000Y-55350000D01*
X79300000Y-55350000D02*
X79500000Y-55150000D01*
X77500000Y-52270000D02*
X77500000Y-53850000D01*
X77540000Y-52230000D02*
X77500000Y-52270000D01*
X76000000Y-53950000D02*
X77400000Y-53950000D01*
X77400000Y-53950000D02*
X77500000Y-53850000D01*
X73330000Y-53850000D02*
X72600000Y-53850000D01*
X73360000Y-53880000D02*
X73330000Y-53850000D01*
X75120000Y-54120000D02*
X75320000Y-54120000D01*
X74175000Y-58175000D02*
X73870000Y-57870000D01*
X75200000Y-58175000D02*
X74175000Y-58175000D01*
X75475000Y-57900000D02*
X75200000Y-58175000D01*
X75475000Y-57525000D02*
X75475000Y-57900000D01*
X75500000Y-57500000D02*
X75475000Y-57525000D01*
X75500000Y-54300000D02*
X75500000Y-57500000D01*
X75320000Y-54120000D02*
X75500000Y-54300000D01*
D31*
G36*
X83704501Y-48722635D02*
X83733286Y-49272073D01*
X83888169Y-49645994D01*
X84128307Y-49714259D01*
X84917566Y-48925000D01*
X84903424Y-48910858D01*
X85085858Y-48728424D01*
X85100000Y-48742566D01*
X85114142Y-48728424D01*
X85296576Y-48910858D01*
X85282434Y-48925000D01*
X86071693Y-49714259D01*
X86248192Y-49664085D01*
X86461907Y-49878172D01*
X86875242Y-50049804D01*
X87322795Y-50050195D01*
X87736429Y-49879285D01*
X88053172Y-49563093D01*
X88224804Y-49149758D01*
X88225195Y-48702205D01*
X88120986Y-48450000D01*
X88550000Y-48450000D01*
X88550000Y-63550000D01*
X79296396Y-63550000D01*
X79348198Y-63498198D01*
X79403711Y-63415117D01*
X79445746Y-63352208D01*
X79480000Y-63180000D01*
X79480000Y-62954547D01*
X79601903Y-62832856D01*
X79704883Y-62584855D01*
X79705027Y-62418481D01*
X82079866Y-62418481D01*
X82197604Y-62703429D01*
X82415425Y-62921630D01*
X82700167Y-63039865D01*
X83008481Y-63040134D01*
X83293429Y-62922396D01*
X83511630Y-62704575D01*
X83629865Y-62419833D01*
X83630134Y-62111519D01*
X83512396Y-61826571D01*
X83294575Y-61608370D01*
X83009833Y-61490135D01*
X82701519Y-61489866D01*
X82416571Y-61607604D01*
X82198370Y-61825425D01*
X82080135Y-62110167D01*
X82079866Y-62418481D01*
X79705027Y-62418481D01*
X79705117Y-62316323D01*
X79679783Y-62255009D01*
X79803677Y-62255117D01*
X80051857Y-62152571D01*
X80241903Y-61962856D01*
X80344883Y-61714855D01*
X80345117Y-61446323D01*
X80242571Y-61198143D01*
X80052856Y-61008097D01*
X79804855Y-60905117D01*
X79536323Y-60904883D01*
X79288143Y-61007429D01*
X79165358Y-61130000D01*
X76706396Y-61130000D01*
X74895441Y-59319045D01*
X75051903Y-59162856D01*
X75154883Y-58914855D01*
X75155117Y-58646323D01*
X75146307Y-58625000D01*
X75200000Y-58625000D01*
X75372208Y-58590746D01*
X75518198Y-58493198D01*
X75657915Y-58353481D01*
X85684866Y-58353481D01*
X85802604Y-58638429D01*
X86020425Y-58856630D01*
X86305167Y-58974865D01*
X86613481Y-58975134D01*
X86898429Y-58857396D01*
X87116630Y-58639575D01*
X87234865Y-58354833D01*
X87235134Y-58046519D01*
X87117396Y-57761571D01*
X86899575Y-57543370D01*
X86614833Y-57425135D01*
X86306519Y-57424866D01*
X86021571Y-57542604D01*
X85803370Y-57760425D01*
X85685135Y-58045167D01*
X85684866Y-58353481D01*
X75657915Y-58353481D01*
X75793198Y-58218198D01*
X75800394Y-58207429D01*
X75890746Y-58072208D01*
X75925000Y-57900000D01*
X75925000Y-57625685D01*
X75950000Y-57500000D01*
X75950000Y-56783250D01*
X77267000Y-56783250D01*
X77267000Y-56875912D01*
X77363369Y-57108566D01*
X77541435Y-57286632D01*
X77774089Y-57383000D01*
X77912750Y-57383000D01*
X78071000Y-57224750D01*
X78071000Y-56625000D01*
X77425250Y-56625000D01*
X77267000Y-56783250D01*
X75950000Y-56783250D01*
X75950000Y-54901000D01*
X76125000Y-54901000D01*
X76125000Y-54921000D01*
X76175250Y-54921000D01*
X76275250Y-55021000D01*
X77371000Y-55021000D01*
X77371000Y-55001000D01*
X77629000Y-55001000D01*
X77629000Y-55021000D01*
X77649000Y-55021000D01*
X77649000Y-55279000D01*
X77629000Y-55279000D01*
X77629000Y-55299000D01*
X77371000Y-55299000D01*
X77371000Y-55279000D01*
X76824750Y-55279000D01*
X76724750Y-55179000D01*
X76125000Y-55179000D01*
X76125000Y-55429250D01*
X76117000Y-55437250D01*
X76117000Y-55775912D01*
X76125000Y-55795226D01*
X76125000Y-55824750D01*
X76145877Y-55845627D01*
X76213369Y-56008566D01*
X76391435Y-56186632D01*
X76624089Y-56283000D01*
X77212750Y-56283000D01*
X77273000Y-56222750D01*
X77425250Y-56375000D01*
X78071000Y-56375000D01*
X78071000Y-56351000D01*
X78329000Y-56351000D01*
X78329000Y-56375000D01*
X78349000Y-56375000D01*
X78349000Y-56625000D01*
X78329000Y-56625000D01*
X78329000Y-57224750D01*
X78487250Y-57383000D01*
X78625911Y-57383000D01*
X78858565Y-57286632D01*
X79012851Y-57132346D01*
X79600000Y-57132346D01*
X79738966Y-57106198D01*
X79866599Y-57024069D01*
X79952223Y-56898754D01*
X79982346Y-56750000D01*
X79982346Y-56250000D01*
X79956198Y-56111034D01*
X79905564Y-56032346D01*
X80250000Y-56032346D01*
X80388966Y-56006198D01*
X80516599Y-55924069D01*
X80602223Y-55798754D01*
X80632346Y-55650000D01*
X80632346Y-55324050D01*
X80858198Y-55098198D01*
X80883721Y-55060000D01*
X80955746Y-54952208D01*
X80990000Y-54780000D01*
X80990000Y-52910000D01*
X80978313Y-52851246D01*
X80955747Y-52737793D01*
X80858198Y-52591802D01*
X80228198Y-51961802D01*
X80153368Y-51911802D01*
X80082208Y-51864254D01*
X79910000Y-51830000D01*
X78944547Y-51830000D01*
X78822856Y-51708097D01*
X78574855Y-51605117D01*
X78306323Y-51604883D01*
X78058143Y-51707429D01*
X78015048Y-51750449D01*
X77922856Y-51658097D01*
X77674855Y-51555117D01*
X77406323Y-51554883D01*
X77158143Y-51657429D01*
X76968097Y-51847144D01*
X76865117Y-52095145D01*
X76864883Y-52363677D01*
X76967429Y-52611857D01*
X77050000Y-52694572D01*
X77050000Y-52967654D01*
X76750000Y-52967654D01*
X76611034Y-52993802D01*
X76483401Y-53075931D01*
X76397777Y-53201246D01*
X76379038Y-53293784D01*
X76250000Y-53267654D01*
X75750000Y-53267654D01*
X75611034Y-53293802D01*
X75483401Y-53375931D01*
X75397777Y-53501246D01*
X75397176Y-53504214D01*
X75254855Y-53445117D01*
X74986323Y-53444883D01*
X74738143Y-53547429D01*
X74548097Y-53737144D01*
X74445117Y-53985145D01*
X74444883Y-54253677D01*
X74523973Y-54445090D01*
X74286323Y-54444883D01*
X74261525Y-54455129D01*
X74098196Y-54291800D01*
X74085626Y-54283401D01*
X73958613Y-54198533D01*
X74034883Y-54014855D01*
X74035117Y-53746323D01*
X73932571Y-53498143D01*
X73742856Y-53308097D01*
X73494855Y-53205117D01*
X73271224Y-53204922D01*
X73282346Y-53150000D01*
X73282346Y-52853677D01*
X73844883Y-52853677D01*
X73947429Y-53101857D01*
X74137144Y-53291903D01*
X74385145Y-53394883D01*
X74653677Y-53395117D01*
X74901857Y-53292571D01*
X75091903Y-53102856D01*
X75194883Y-52854855D01*
X75195117Y-52586323D01*
X75092571Y-52338143D01*
X74902856Y-52148097D01*
X74654855Y-52045117D01*
X74386323Y-52044883D01*
X74138143Y-52147429D01*
X73948097Y-52337144D01*
X73845117Y-52585145D01*
X73844883Y-52853677D01*
X73282346Y-52853677D01*
X73282346Y-52750000D01*
X73256198Y-52611034D01*
X73174069Y-52483401D01*
X73048754Y-52397777D01*
X72900000Y-52367654D01*
X72664163Y-52367654D01*
X72500000Y-52335000D01*
X71757272Y-52335000D01*
X71724069Y-52283401D01*
X71598754Y-52197777D01*
X71450000Y-52167654D01*
X70950000Y-52167654D01*
X70811034Y-52193802D01*
X70683401Y-52275931D01*
X70597777Y-52401246D01*
X70567654Y-52550000D01*
X70567654Y-52754026D01*
X70546680Y-52775000D01*
X70369937Y-52775000D01*
X70375000Y-52750000D01*
X70375000Y-50543677D01*
X79484883Y-50543677D01*
X79587429Y-50791857D01*
X79777144Y-50981903D01*
X80025145Y-51084883D01*
X80293677Y-51085117D01*
X80541857Y-50982571D01*
X80731903Y-50792856D01*
X80834883Y-50544855D01*
X80835117Y-50276323D01*
X80732571Y-50028143D01*
X80601350Y-49896693D01*
X84310741Y-49896693D01*
X84379006Y-50136831D01*
X84897635Y-50320499D01*
X85447073Y-50291714D01*
X85820994Y-50136831D01*
X85889259Y-49896693D01*
X85100000Y-49107434D01*
X84310741Y-49896693D01*
X80601350Y-49896693D01*
X80542856Y-49838097D01*
X80294855Y-49735117D01*
X80026323Y-49734883D01*
X79778143Y-49837429D01*
X79588097Y-50027144D01*
X79485117Y-50275145D01*
X79484883Y-50543677D01*
X70375000Y-50543677D01*
X70375000Y-48450000D01*
X83801052Y-48450000D01*
X83704501Y-48722635D01*
X83704501Y-48722635D01*
G37*
X83704501Y-48722635D02*
X83733286Y-49272073D01*
X83888169Y-49645994D01*
X84128307Y-49714259D01*
X84917566Y-48925000D01*
X84903424Y-48910858D01*
X85085858Y-48728424D01*
X85100000Y-48742566D01*
X85114142Y-48728424D01*
X85296576Y-48910858D01*
X85282434Y-48925000D01*
X86071693Y-49714259D01*
X86248192Y-49664085D01*
X86461907Y-49878172D01*
X86875242Y-50049804D01*
X87322795Y-50050195D01*
X87736429Y-49879285D01*
X88053172Y-49563093D01*
X88224804Y-49149758D01*
X88225195Y-48702205D01*
X88120986Y-48450000D01*
X88550000Y-48450000D01*
X88550000Y-63550000D01*
X79296396Y-63550000D01*
X79348198Y-63498198D01*
X79403711Y-63415117D01*
X79445746Y-63352208D01*
X79480000Y-63180000D01*
X79480000Y-62954547D01*
X79601903Y-62832856D01*
X79704883Y-62584855D01*
X79705027Y-62418481D01*
X82079866Y-62418481D01*
X82197604Y-62703429D01*
X82415425Y-62921630D01*
X82700167Y-63039865D01*
X83008481Y-63040134D01*
X83293429Y-62922396D01*
X83511630Y-62704575D01*
X83629865Y-62419833D01*
X83630134Y-62111519D01*
X83512396Y-61826571D01*
X83294575Y-61608370D01*
X83009833Y-61490135D01*
X82701519Y-61489866D01*
X82416571Y-61607604D01*
X82198370Y-61825425D01*
X82080135Y-62110167D01*
X82079866Y-62418481D01*
X79705027Y-62418481D01*
X79705117Y-62316323D01*
X79679783Y-62255009D01*
X79803677Y-62255117D01*
X80051857Y-62152571D01*
X80241903Y-61962856D01*
X80344883Y-61714855D01*
X80345117Y-61446323D01*
X80242571Y-61198143D01*
X80052856Y-61008097D01*
X79804855Y-60905117D01*
X79536323Y-60904883D01*
X79288143Y-61007429D01*
X79165358Y-61130000D01*
X76706396Y-61130000D01*
X74895441Y-59319045D01*
X75051903Y-59162856D01*
X75154883Y-58914855D01*
X75155117Y-58646323D01*
X75146307Y-58625000D01*
X75200000Y-58625000D01*
X75372208Y-58590746D01*
X75518198Y-58493198D01*
X75657915Y-58353481D01*
X85684866Y-58353481D01*
X85802604Y-58638429D01*
X86020425Y-58856630D01*
X86305167Y-58974865D01*
X86613481Y-58975134D01*
X86898429Y-58857396D01*
X87116630Y-58639575D01*
X87234865Y-58354833D01*
X87235134Y-58046519D01*
X87117396Y-57761571D01*
X86899575Y-57543370D01*
X86614833Y-57425135D01*
X86306519Y-57424866D01*
X86021571Y-57542604D01*
X85803370Y-57760425D01*
X85685135Y-58045167D01*
X85684866Y-58353481D01*
X75657915Y-58353481D01*
X75793198Y-58218198D01*
X75800394Y-58207429D01*
X75890746Y-58072208D01*
X75925000Y-57900000D01*
X75925000Y-57625685D01*
X75950000Y-57500000D01*
X75950000Y-56783250D01*
X77267000Y-56783250D01*
X77267000Y-56875912D01*
X77363369Y-57108566D01*
X77541435Y-57286632D01*
X77774089Y-57383000D01*
X77912750Y-57383000D01*
X78071000Y-57224750D01*
X78071000Y-56625000D01*
X77425250Y-56625000D01*
X77267000Y-56783250D01*
X75950000Y-56783250D01*
X75950000Y-54901000D01*
X76125000Y-54901000D01*
X76125000Y-54921000D01*
X76175250Y-54921000D01*
X76275250Y-55021000D01*
X77371000Y-55021000D01*
X77371000Y-55001000D01*
X77629000Y-55001000D01*
X77629000Y-55021000D01*
X77649000Y-55021000D01*
X77649000Y-55279000D01*
X77629000Y-55279000D01*
X77629000Y-55299000D01*
X77371000Y-55299000D01*
X77371000Y-55279000D01*
X76824750Y-55279000D01*
X76724750Y-55179000D01*
X76125000Y-55179000D01*
X76125000Y-55429250D01*
X76117000Y-55437250D01*
X76117000Y-55775912D01*
X76125000Y-55795226D01*
X76125000Y-55824750D01*
X76145877Y-55845627D01*
X76213369Y-56008566D01*
X76391435Y-56186632D01*
X76624089Y-56283000D01*
X77212750Y-56283000D01*
X77273000Y-56222750D01*
X77425250Y-56375000D01*
X78071000Y-56375000D01*
X78071000Y-56351000D01*
X78329000Y-56351000D01*
X78329000Y-56375000D01*
X78349000Y-56375000D01*
X78349000Y-56625000D01*
X78329000Y-56625000D01*
X78329000Y-57224750D01*
X78487250Y-57383000D01*
X78625911Y-57383000D01*
X78858565Y-57286632D01*
X79012851Y-57132346D01*
X79600000Y-57132346D01*
X79738966Y-57106198D01*
X79866599Y-57024069D01*
X79952223Y-56898754D01*
X79982346Y-56750000D01*
X79982346Y-56250000D01*
X79956198Y-56111034D01*
X79905564Y-56032346D01*
X80250000Y-56032346D01*
X80388966Y-56006198D01*
X80516599Y-55924069D01*
X80602223Y-55798754D01*
X80632346Y-55650000D01*
X80632346Y-55324050D01*
X80858198Y-55098198D01*
X80883721Y-55060000D01*
X80955746Y-54952208D01*
X80990000Y-54780000D01*
X80990000Y-52910000D01*
X80978313Y-52851246D01*
X80955747Y-52737793D01*
X80858198Y-52591802D01*
X80228198Y-51961802D01*
X80153368Y-51911802D01*
X80082208Y-51864254D01*
X79910000Y-51830000D01*
X78944547Y-51830000D01*
X78822856Y-51708097D01*
X78574855Y-51605117D01*
X78306323Y-51604883D01*
X78058143Y-51707429D01*
X78015048Y-51750449D01*
X77922856Y-51658097D01*
X77674855Y-51555117D01*
X77406323Y-51554883D01*
X77158143Y-51657429D01*
X76968097Y-51847144D01*
X76865117Y-52095145D01*
X76864883Y-52363677D01*
X76967429Y-52611857D01*
X77050000Y-52694572D01*
X77050000Y-52967654D01*
X76750000Y-52967654D01*
X76611034Y-52993802D01*
X76483401Y-53075931D01*
X76397777Y-53201246D01*
X76379038Y-53293784D01*
X76250000Y-53267654D01*
X75750000Y-53267654D01*
X75611034Y-53293802D01*
X75483401Y-53375931D01*
X75397777Y-53501246D01*
X75397176Y-53504214D01*
X75254855Y-53445117D01*
X74986323Y-53444883D01*
X74738143Y-53547429D01*
X74548097Y-53737144D01*
X74445117Y-53985145D01*
X74444883Y-54253677D01*
X74523973Y-54445090D01*
X74286323Y-54444883D01*
X74261525Y-54455129D01*
X74098196Y-54291800D01*
X74085626Y-54283401D01*
X73958613Y-54198533D01*
X74034883Y-54014855D01*
X74035117Y-53746323D01*
X73932571Y-53498143D01*
X73742856Y-53308097D01*
X73494855Y-53205117D01*
X73271224Y-53204922D01*
X73282346Y-53150000D01*
X73282346Y-52853677D01*
X73844883Y-52853677D01*
X73947429Y-53101857D01*
X74137144Y-53291903D01*
X74385145Y-53394883D01*
X74653677Y-53395117D01*
X74901857Y-53292571D01*
X75091903Y-53102856D01*
X75194883Y-52854855D01*
X75195117Y-52586323D01*
X75092571Y-52338143D01*
X74902856Y-52148097D01*
X74654855Y-52045117D01*
X74386323Y-52044883D01*
X74138143Y-52147429D01*
X73948097Y-52337144D01*
X73845117Y-52585145D01*
X73844883Y-52853677D01*
X73282346Y-52853677D01*
X73282346Y-52750000D01*
X73256198Y-52611034D01*
X73174069Y-52483401D01*
X73048754Y-52397777D01*
X72900000Y-52367654D01*
X72664163Y-52367654D01*
X72500000Y-52335000D01*
X71757272Y-52335000D01*
X71724069Y-52283401D01*
X71598754Y-52197777D01*
X71450000Y-52167654D01*
X70950000Y-52167654D01*
X70811034Y-52193802D01*
X70683401Y-52275931D01*
X70597777Y-52401246D01*
X70567654Y-52550000D01*
X70567654Y-52754026D01*
X70546680Y-52775000D01*
X70369937Y-52775000D01*
X70375000Y-52750000D01*
X70375000Y-50543677D01*
X79484883Y-50543677D01*
X79587429Y-50791857D01*
X79777144Y-50981903D01*
X80025145Y-51084883D01*
X80293677Y-51085117D01*
X80541857Y-50982571D01*
X80731903Y-50792856D01*
X80834883Y-50544855D01*
X80835117Y-50276323D01*
X80732571Y-50028143D01*
X80601350Y-49896693D01*
X84310741Y-49896693D01*
X84379006Y-50136831D01*
X84897635Y-50320499D01*
X85447073Y-50291714D01*
X85820994Y-50136831D01*
X85889259Y-49896693D01*
X85100000Y-49107434D01*
X84310741Y-49896693D01*
X80601350Y-49896693D01*
X80542856Y-49838097D01*
X80294855Y-49735117D01*
X80026323Y-49734883D01*
X79778143Y-49837429D01*
X79588097Y-50027144D01*
X79485117Y-50275145D01*
X79484883Y-50543677D01*
X70375000Y-50543677D01*
X70375000Y-48450000D01*
X83801052Y-48450000D01*
X83704501Y-48722635D01*
G36*
X64125000Y-52750000D02*
X64133549Y-52795432D01*
X64160399Y-52837159D01*
X64201368Y-52865152D01*
X64250000Y-52875000D01*
X66592967Y-52875000D01*
X66567654Y-53000000D01*
X66567654Y-53600000D01*
X66593802Y-53738966D01*
X66675931Y-53866599D01*
X66801246Y-53952223D01*
X66950000Y-53982346D01*
X66950000Y-54167654D01*
X66750000Y-54167654D01*
X66646329Y-54187161D01*
X66550000Y-54167654D01*
X66250000Y-54167654D01*
X66146329Y-54187161D01*
X66050000Y-54167654D01*
X65750000Y-54167654D01*
X65593419Y-54201186D01*
X65470048Y-54289587D01*
X65390789Y-54419021D01*
X65368131Y-54569093D01*
X65384168Y-54889823D01*
X65292571Y-54668143D01*
X65102856Y-54478097D01*
X64854855Y-54375117D01*
X64586323Y-54374883D01*
X64338143Y-54477429D01*
X64148097Y-54667144D01*
X64045117Y-54915145D01*
X64044883Y-55183677D01*
X64147429Y-55431857D01*
X64284103Y-55568770D01*
X64267654Y-55650000D01*
X64267654Y-55866379D01*
X64177792Y-55884254D01*
X64031802Y-55981802D01*
X63571802Y-56441802D01*
X63474254Y-56587792D01*
X63440000Y-56760000D01*
X63440000Y-59203604D01*
X62831802Y-59811802D01*
X62786276Y-59879937D01*
X62768143Y-59887429D01*
X62578097Y-60077144D01*
X62475117Y-60325145D01*
X62474883Y-60593677D01*
X62489891Y-60630000D01*
X61785815Y-60630000D01*
X61767221Y-60585000D01*
X61627437Y-60444972D01*
X61766356Y-60306295D01*
X61899848Y-59984812D01*
X61900151Y-59636715D01*
X61767221Y-59315000D01*
X61627437Y-59174972D01*
X61766356Y-59036295D01*
X61899848Y-58714812D01*
X61900151Y-58366715D01*
X61767221Y-58045000D01*
X61627437Y-57904972D01*
X61766356Y-57766295D01*
X61899848Y-57444812D01*
X61900151Y-57096715D01*
X61767221Y-56775000D01*
X61521295Y-56528644D01*
X61264636Y-56422069D01*
X61025000Y-56182434D01*
X60785032Y-56422402D01*
X60530000Y-56527779D01*
X60283644Y-56773705D01*
X60150152Y-57095188D01*
X60149849Y-57443285D01*
X60282779Y-57765000D01*
X60422563Y-57905028D01*
X60283644Y-58043705D01*
X60150152Y-58365188D01*
X60149849Y-58713285D01*
X60282779Y-59035000D01*
X60422563Y-59175028D01*
X60283644Y-59313705D01*
X60185525Y-59550000D01*
X59999098Y-59550000D01*
X59924069Y-59433401D01*
X59798754Y-59347777D01*
X59650000Y-59317654D01*
X59262851Y-59317654D01*
X59108565Y-59163368D01*
X58875911Y-59067000D01*
X58808250Y-59067000D01*
X58650000Y-59225250D01*
X58650000Y-59871000D01*
X58699000Y-59871000D01*
X58699000Y-60129000D01*
X58650000Y-60129000D01*
X58650000Y-60149000D01*
X58450000Y-60149000D01*
X58450000Y-60129000D01*
X58401000Y-60129000D01*
X58401000Y-59871000D01*
X58450000Y-59871000D01*
X58450000Y-59225250D01*
X58291750Y-59067000D01*
X58224089Y-59067000D01*
X57991435Y-59163368D01*
X57813369Y-59341434D01*
X57717000Y-59574088D01*
X57717000Y-59600604D01*
X57610000Y-59493604D01*
X57610000Y-59185977D01*
X57811857Y-59102571D01*
X58001903Y-58912856D01*
X58104883Y-58664855D01*
X58105117Y-58396323D01*
X58002571Y-58148143D01*
X57812856Y-57958097D01*
X57564855Y-57855117D01*
X57296323Y-57854883D01*
X57048143Y-57957429D01*
X56858097Y-58147144D01*
X56778015Y-58340000D01*
X53500000Y-58340000D01*
X53366488Y-58366557D01*
X53314855Y-58345117D01*
X53046323Y-58344883D01*
X52798143Y-58447429D01*
X52608097Y-58637144D01*
X52505117Y-58885145D01*
X52504883Y-59153677D01*
X52607429Y-59401857D01*
X52797144Y-59591903D01*
X53045145Y-59694883D01*
X53269837Y-59695079D01*
X53297429Y-59761857D01*
X53487144Y-59951903D01*
X53735145Y-60054883D01*
X54003677Y-60055117D01*
X54251857Y-59952571D01*
X54441903Y-59762856D01*
X54530289Y-59550000D01*
X54659738Y-59550000D01*
X54645135Y-59585167D01*
X54644866Y-59893481D01*
X54762604Y-60178429D01*
X54970375Y-60386563D01*
X54967654Y-60400000D01*
X54967654Y-61200000D01*
X54993802Y-61338966D01*
X55005702Y-61357459D01*
X54991434Y-61363369D01*
X54813368Y-61541435D01*
X54717000Y-61774089D01*
X54717000Y-62012750D01*
X54875250Y-62171000D01*
X55596000Y-62171000D01*
X55596000Y-62151000D01*
X55854000Y-62151000D01*
X55854000Y-62171000D01*
X56574750Y-62171000D01*
X56733000Y-62012750D01*
X56733000Y-61774089D01*
X56636632Y-61541435D01*
X56458566Y-61363369D01*
X56445839Y-61358097D01*
X56452223Y-61348754D01*
X56482346Y-61200000D01*
X56482346Y-60725518D01*
X58513413Y-62756586D01*
X58595195Y-62811231D01*
X58699957Y-62881231D01*
X58920000Y-62925000D01*
X60362639Y-62925000D01*
X60528705Y-63091356D01*
X60850188Y-63224848D01*
X61198285Y-63225151D01*
X61520000Y-63092221D01*
X61687513Y-62925000D01*
X63344917Y-62925000D01*
X63344883Y-62963677D01*
X63447429Y-63211857D01*
X63637144Y-63401903D01*
X63885145Y-63504883D01*
X64153677Y-63505117D01*
X64401857Y-63402571D01*
X64591903Y-63212856D01*
X64694883Y-62964855D01*
X64694945Y-62894180D01*
X64760043Y-62881231D01*
X64799300Y-62855000D01*
X64950000Y-62855000D01*
X65170043Y-62811231D01*
X65356586Y-62686586D01*
X65905922Y-62137250D01*
X66317000Y-62137250D01*
X66317000Y-62275911D01*
X66413368Y-62508565D01*
X66591434Y-62686631D01*
X66824088Y-62783000D01*
X66916750Y-62783000D01*
X67075000Y-62624750D01*
X67075000Y-61979000D01*
X66475250Y-61979000D01*
X66317000Y-62137250D01*
X65905922Y-62137250D01*
X66398711Y-61644461D01*
X66475250Y-61721000D01*
X67075000Y-61721000D01*
X67075000Y-61701000D01*
X67325000Y-61701000D01*
X67325000Y-61721000D01*
X67349000Y-61721000D01*
X67349000Y-61979000D01*
X67325000Y-61979000D01*
X67325000Y-62624750D01*
X67483250Y-62783000D01*
X67575912Y-62783000D01*
X67808566Y-62686631D01*
X67857947Y-62637250D01*
X68992000Y-62637250D01*
X68992000Y-62875911D01*
X69088368Y-63108565D01*
X69266434Y-63286631D01*
X69499088Y-63383000D01*
X69712750Y-63383000D01*
X69871000Y-63224750D01*
X69871000Y-62479000D01*
X69150250Y-62479000D01*
X68992000Y-62637250D01*
X67857947Y-62637250D01*
X67986632Y-62508565D01*
X68083000Y-62275911D01*
X68083000Y-62149882D01*
X68125931Y-62216599D01*
X68251246Y-62302223D01*
X68400000Y-62332346D01*
X69000000Y-62332346D01*
X69138966Y-62306198D01*
X69266599Y-62224069D01*
X69268696Y-62221000D01*
X69871000Y-62221000D01*
X69871000Y-62201000D01*
X70129000Y-62201000D01*
X70129000Y-62221000D01*
X70149000Y-62221000D01*
X70149000Y-62479000D01*
X70129000Y-62479000D01*
X70129000Y-63224750D01*
X70287250Y-63383000D01*
X70500912Y-63383000D01*
X70733566Y-63286631D01*
X70817880Y-63202317D01*
X71002144Y-63386903D01*
X71250145Y-63489883D01*
X71518677Y-63490117D01*
X71766857Y-63387571D01*
X71956903Y-63197856D01*
X72059883Y-62949855D01*
X72060117Y-62681323D01*
X72054526Y-62667792D01*
X72070000Y-62590000D01*
X72070000Y-60240000D01*
X72065777Y-60218769D01*
X72035747Y-60067793D01*
X71938198Y-59921802D01*
X70766396Y-58750000D01*
X71153604Y-58750000D01*
X75953604Y-63550000D01*
X51450000Y-63550000D01*
X51450000Y-62587250D01*
X54717000Y-62587250D01*
X54717000Y-62825911D01*
X54813368Y-63058565D01*
X54991434Y-63236631D01*
X55224088Y-63333000D01*
X55437750Y-63333000D01*
X55596000Y-63174750D01*
X55596000Y-62429000D01*
X55854000Y-62429000D01*
X55854000Y-63174750D01*
X56012250Y-63333000D01*
X56225912Y-63333000D01*
X56458566Y-63236631D01*
X56636632Y-63058565D01*
X56733000Y-62825911D01*
X56733000Y-62587250D01*
X56574750Y-62429000D01*
X55854000Y-62429000D01*
X55596000Y-62429000D01*
X54875250Y-62429000D01*
X54717000Y-62587250D01*
X51450000Y-62587250D01*
X51450000Y-55412346D01*
X54750000Y-55412346D01*
X54888966Y-55386198D01*
X55016599Y-55304069D01*
X55102223Y-55178754D01*
X55128295Y-55050000D01*
X59330000Y-55050000D01*
X59364254Y-55222207D01*
X59461802Y-55368198D01*
X59471802Y-55378198D01*
X59617793Y-55475746D01*
X59790000Y-55510000D01*
X59962207Y-55475746D01*
X60017369Y-55438888D01*
X59878632Y-55857447D01*
X59911341Y-56306994D01*
X60020447Y-56570398D01*
X60234762Y-56607805D01*
X60842566Y-56000000D01*
X60828424Y-55985858D01*
X61010858Y-55803424D01*
X61025000Y-55817566D01*
X61039142Y-55803424D01*
X61221576Y-55985858D01*
X61207434Y-56000000D01*
X61815238Y-56607805D01*
X62029553Y-56570398D01*
X62171368Y-56142553D01*
X62138659Y-55693006D01*
X62029553Y-55429602D01*
X61815241Y-55392195D01*
X61931334Y-55276102D01*
X61860644Y-55205412D01*
X61914865Y-55074833D01*
X61915134Y-54766519D01*
X61797396Y-54481571D01*
X61579575Y-54263370D01*
X61294833Y-54145135D01*
X60986519Y-54144866D01*
X60701571Y-54262604D01*
X60483370Y-54480425D01*
X60365135Y-54765167D01*
X60364866Y-55073481D01*
X60418377Y-55202988D01*
X60417195Y-55209759D01*
X60301102Y-55093666D01*
X60216469Y-55178299D01*
X60240000Y-55060000D01*
X60205746Y-54887793D01*
X60108198Y-54741802D01*
X60098198Y-54731802D01*
X59952207Y-54634254D01*
X59780000Y-54600000D01*
X59607793Y-54634254D01*
X59461802Y-54731802D01*
X59364254Y-54877793D01*
X59330000Y-55050000D01*
X55128295Y-55050000D01*
X55132346Y-55030000D01*
X55132346Y-53530000D01*
X55106198Y-53391034D01*
X55024069Y-53263401D01*
X55011774Y-53255000D01*
X55481766Y-53255000D01*
X55493802Y-53318966D01*
X55575931Y-53446599D01*
X55701246Y-53532223D01*
X55850000Y-53562346D01*
X60350000Y-53562346D01*
X60488966Y-53536198D01*
X60616599Y-53454069D01*
X60702223Y-53328754D01*
X60732346Y-53180000D01*
X60732346Y-52180000D01*
X60706198Y-52041034D01*
X60624069Y-51913401D01*
X60498754Y-51827777D01*
X60425782Y-51813000D01*
X60475912Y-51813000D01*
X60708566Y-51716631D01*
X60886632Y-51538565D01*
X60983000Y-51305911D01*
X60983000Y-50967250D01*
X60824750Y-50809000D01*
X58229000Y-50809000D01*
X58229000Y-50829000D01*
X57971000Y-50829000D01*
X57971000Y-50809000D01*
X55375250Y-50809000D01*
X55217000Y-50967250D01*
X55217000Y-51305911D01*
X55313368Y-51538565D01*
X55491434Y-51716631D01*
X55724088Y-51813000D01*
X55768442Y-51813000D01*
X55711034Y-51823802D01*
X55583401Y-51905931D01*
X55497777Y-52031246D01*
X55482842Y-52105000D01*
X53588813Y-52105000D01*
X53587396Y-52101571D01*
X53369575Y-51883370D01*
X53084833Y-51765135D01*
X52776519Y-51764866D01*
X52491571Y-51882604D01*
X52273370Y-52100425D01*
X52155135Y-52385167D01*
X52154866Y-52693481D01*
X52272604Y-52978429D01*
X52441534Y-53147654D01*
X51450000Y-53147654D01*
X51450000Y-50212346D01*
X54750000Y-50212346D01*
X54888966Y-50186198D01*
X55016599Y-50104069D01*
X55050748Y-50054089D01*
X55217000Y-50054089D01*
X55217000Y-50392750D01*
X55375250Y-50551000D01*
X57971000Y-50551000D01*
X57971000Y-49705250D01*
X58229000Y-49705250D01*
X58229000Y-50551000D01*
X60824750Y-50551000D01*
X60983000Y-50392750D01*
X60983000Y-50054089D01*
X60886632Y-49821435D01*
X60708566Y-49643369D01*
X60475912Y-49547000D01*
X58387250Y-49547000D01*
X58229000Y-49705250D01*
X57971000Y-49705250D01*
X57812750Y-49547000D01*
X55724088Y-49547000D01*
X55491434Y-49643369D01*
X55313368Y-49821435D01*
X55217000Y-50054089D01*
X55050748Y-50054089D01*
X55102223Y-49978754D01*
X55132346Y-49830000D01*
X55132346Y-48450000D01*
X64125000Y-48450000D01*
X64125000Y-52750000D01*
X64125000Y-52750000D01*
G37*
X64125000Y-52750000D02*
X64133549Y-52795432D01*
X64160399Y-52837159D01*
X64201368Y-52865152D01*
X64250000Y-52875000D01*
X66592967Y-52875000D01*
X66567654Y-53000000D01*
X66567654Y-53600000D01*
X66593802Y-53738966D01*
X66675931Y-53866599D01*
X66801246Y-53952223D01*
X66950000Y-53982346D01*
X66950000Y-54167654D01*
X66750000Y-54167654D01*
X66646329Y-54187161D01*
X66550000Y-54167654D01*
X66250000Y-54167654D01*
X66146329Y-54187161D01*
X66050000Y-54167654D01*
X65750000Y-54167654D01*
X65593419Y-54201186D01*
X65470048Y-54289587D01*
X65390789Y-54419021D01*
X65368131Y-54569093D01*
X65384168Y-54889823D01*
X65292571Y-54668143D01*
X65102856Y-54478097D01*
X64854855Y-54375117D01*
X64586323Y-54374883D01*
X64338143Y-54477429D01*
X64148097Y-54667144D01*
X64045117Y-54915145D01*
X64044883Y-55183677D01*
X64147429Y-55431857D01*
X64284103Y-55568770D01*
X64267654Y-55650000D01*
X64267654Y-55866379D01*
X64177792Y-55884254D01*
X64031802Y-55981802D01*
X63571802Y-56441802D01*
X63474254Y-56587792D01*
X63440000Y-56760000D01*
X63440000Y-59203604D01*
X62831802Y-59811802D01*
X62786276Y-59879937D01*
X62768143Y-59887429D01*
X62578097Y-60077144D01*
X62475117Y-60325145D01*
X62474883Y-60593677D01*
X62489891Y-60630000D01*
X61785815Y-60630000D01*
X61767221Y-60585000D01*
X61627437Y-60444972D01*
X61766356Y-60306295D01*
X61899848Y-59984812D01*
X61900151Y-59636715D01*
X61767221Y-59315000D01*
X61627437Y-59174972D01*
X61766356Y-59036295D01*
X61899848Y-58714812D01*
X61900151Y-58366715D01*
X61767221Y-58045000D01*
X61627437Y-57904972D01*
X61766356Y-57766295D01*
X61899848Y-57444812D01*
X61900151Y-57096715D01*
X61767221Y-56775000D01*
X61521295Y-56528644D01*
X61264636Y-56422069D01*
X61025000Y-56182434D01*
X60785032Y-56422402D01*
X60530000Y-56527779D01*
X60283644Y-56773705D01*
X60150152Y-57095188D01*
X60149849Y-57443285D01*
X60282779Y-57765000D01*
X60422563Y-57905028D01*
X60283644Y-58043705D01*
X60150152Y-58365188D01*
X60149849Y-58713285D01*
X60282779Y-59035000D01*
X60422563Y-59175028D01*
X60283644Y-59313705D01*
X60185525Y-59550000D01*
X59999098Y-59550000D01*
X59924069Y-59433401D01*
X59798754Y-59347777D01*
X59650000Y-59317654D01*
X59262851Y-59317654D01*
X59108565Y-59163368D01*
X58875911Y-59067000D01*
X58808250Y-59067000D01*
X58650000Y-59225250D01*
X58650000Y-59871000D01*
X58699000Y-59871000D01*
X58699000Y-60129000D01*
X58650000Y-60129000D01*
X58650000Y-60149000D01*
X58450000Y-60149000D01*
X58450000Y-60129000D01*
X58401000Y-60129000D01*
X58401000Y-59871000D01*
X58450000Y-59871000D01*
X58450000Y-59225250D01*
X58291750Y-59067000D01*
X58224089Y-59067000D01*
X57991435Y-59163368D01*
X57813369Y-59341434D01*
X57717000Y-59574088D01*
X57717000Y-59600604D01*
X57610000Y-59493604D01*
X57610000Y-59185977D01*
X57811857Y-59102571D01*
X58001903Y-58912856D01*
X58104883Y-58664855D01*
X58105117Y-58396323D01*
X58002571Y-58148143D01*
X57812856Y-57958097D01*
X57564855Y-57855117D01*
X57296323Y-57854883D01*
X57048143Y-57957429D01*
X56858097Y-58147144D01*
X56778015Y-58340000D01*
X53500000Y-58340000D01*
X53366488Y-58366557D01*
X53314855Y-58345117D01*
X53046323Y-58344883D01*
X52798143Y-58447429D01*
X52608097Y-58637144D01*
X52505117Y-58885145D01*
X52504883Y-59153677D01*
X52607429Y-59401857D01*
X52797144Y-59591903D01*
X53045145Y-59694883D01*
X53269837Y-59695079D01*
X53297429Y-59761857D01*
X53487144Y-59951903D01*
X53735145Y-60054883D01*
X54003677Y-60055117D01*
X54251857Y-59952571D01*
X54441903Y-59762856D01*
X54530289Y-59550000D01*
X54659738Y-59550000D01*
X54645135Y-59585167D01*
X54644866Y-59893481D01*
X54762604Y-60178429D01*
X54970375Y-60386563D01*
X54967654Y-60400000D01*
X54967654Y-61200000D01*
X54993802Y-61338966D01*
X55005702Y-61357459D01*
X54991434Y-61363369D01*
X54813368Y-61541435D01*
X54717000Y-61774089D01*
X54717000Y-62012750D01*
X54875250Y-62171000D01*
X55596000Y-62171000D01*
X55596000Y-62151000D01*
X55854000Y-62151000D01*
X55854000Y-62171000D01*
X56574750Y-62171000D01*
X56733000Y-62012750D01*
X56733000Y-61774089D01*
X56636632Y-61541435D01*
X56458566Y-61363369D01*
X56445839Y-61358097D01*
X56452223Y-61348754D01*
X56482346Y-61200000D01*
X56482346Y-60725518D01*
X58513413Y-62756586D01*
X58595195Y-62811231D01*
X58699957Y-62881231D01*
X58920000Y-62925000D01*
X60362639Y-62925000D01*
X60528705Y-63091356D01*
X60850188Y-63224848D01*
X61198285Y-63225151D01*
X61520000Y-63092221D01*
X61687513Y-62925000D01*
X63344917Y-62925000D01*
X63344883Y-62963677D01*
X63447429Y-63211857D01*
X63637144Y-63401903D01*
X63885145Y-63504883D01*
X64153677Y-63505117D01*
X64401857Y-63402571D01*
X64591903Y-63212856D01*
X64694883Y-62964855D01*
X64694945Y-62894180D01*
X64760043Y-62881231D01*
X64799300Y-62855000D01*
X64950000Y-62855000D01*
X65170043Y-62811231D01*
X65356586Y-62686586D01*
X65905922Y-62137250D01*
X66317000Y-62137250D01*
X66317000Y-62275911D01*
X66413368Y-62508565D01*
X66591434Y-62686631D01*
X66824088Y-62783000D01*
X66916750Y-62783000D01*
X67075000Y-62624750D01*
X67075000Y-61979000D01*
X66475250Y-61979000D01*
X66317000Y-62137250D01*
X65905922Y-62137250D01*
X66398711Y-61644461D01*
X66475250Y-61721000D01*
X67075000Y-61721000D01*
X67075000Y-61701000D01*
X67325000Y-61701000D01*
X67325000Y-61721000D01*
X67349000Y-61721000D01*
X67349000Y-61979000D01*
X67325000Y-61979000D01*
X67325000Y-62624750D01*
X67483250Y-62783000D01*
X67575912Y-62783000D01*
X67808566Y-62686631D01*
X67857947Y-62637250D01*
X68992000Y-62637250D01*
X68992000Y-62875911D01*
X69088368Y-63108565D01*
X69266434Y-63286631D01*
X69499088Y-63383000D01*
X69712750Y-63383000D01*
X69871000Y-63224750D01*
X69871000Y-62479000D01*
X69150250Y-62479000D01*
X68992000Y-62637250D01*
X67857947Y-62637250D01*
X67986632Y-62508565D01*
X68083000Y-62275911D01*
X68083000Y-62149882D01*
X68125931Y-62216599D01*
X68251246Y-62302223D01*
X68400000Y-62332346D01*
X69000000Y-62332346D01*
X69138966Y-62306198D01*
X69266599Y-62224069D01*
X69268696Y-62221000D01*
X69871000Y-62221000D01*
X69871000Y-62201000D01*
X70129000Y-62201000D01*
X70129000Y-62221000D01*
X70149000Y-62221000D01*
X70149000Y-62479000D01*
X70129000Y-62479000D01*
X70129000Y-63224750D01*
X70287250Y-63383000D01*
X70500912Y-63383000D01*
X70733566Y-63286631D01*
X70817880Y-63202317D01*
X71002144Y-63386903D01*
X71250145Y-63489883D01*
X71518677Y-63490117D01*
X71766857Y-63387571D01*
X71956903Y-63197856D01*
X72059883Y-62949855D01*
X72060117Y-62681323D01*
X72054526Y-62667792D01*
X72070000Y-62590000D01*
X72070000Y-60240000D01*
X72065777Y-60218769D01*
X72035747Y-60067793D01*
X71938198Y-59921802D01*
X70766396Y-58750000D01*
X71153604Y-58750000D01*
X75953604Y-63550000D01*
X51450000Y-63550000D01*
X51450000Y-62587250D01*
X54717000Y-62587250D01*
X54717000Y-62825911D01*
X54813368Y-63058565D01*
X54991434Y-63236631D01*
X55224088Y-63333000D01*
X55437750Y-63333000D01*
X55596000Y-63174750D01*
X55596000Y-62429000D01*
X55854000Y-62429000D01*
X55854000Y-63174750D01*
X56012250Y-63333000D01*
X56225912Y-63333000D01*
X56458566Y-63236631D01*
X56636632Y-63058565D01*
X56733000Y-62825911D01*
X56733000Y-62587250D01*
X56574750Y-62429000D01*
X55854000Y-62429000D01*
X55596000Y-62429000D01*
X54875250Y-62429000D01*
X54717000Y-62587250D01*
X51450000Y-62587250D01*
X51450000Y-55412346D01*
X54750000Y-55412346D01*
X54888966Y-55386198D01*
X55016599Y-55304069D01*
X55102223Y-55178754D01*
X55128295Y-55050000D01*
X59330000Y-55050000D01*
X59364254Y-55222207D01*
X59461802Y-55368198D01*
X59471802Y-55378198D01*
X59617793Y-55475746D01*
X59790000Y-55510000D01*
X59962207Y-55475746D01*
X60017369Y-55438888D01*
X59878632Y-55857447D01*
X59911341Y-56306994D01*
X60020447Y-56570398D01*
X60234762Y-56607805D01*
X60842566Y-56000000D01*
X60828424Y-55985858D01*
X61010858Y-55803424D01*
X61025000Y-55817566D01*
X61039142Y-55803424D01*
X61221576Y-55985858D01*
X61207434Y-56000000D01*
X61815238Y-56607805D01*
X62029553Y-56570398D01*
X62171368Y-56142553D01*
X62138659Y-55693006D01*
X62029553Y-55429602D01*
X61815241Y-55392195D01*
X61931334Y-55276102D01*
X61860644Y-55205412D01*
X61914865Y-55074833D01*
X61915134Y-54766519D01*
X61797396Y-54481571D01*
X61579575Y-54263370D01*
X61294833Y-54145135D01*
X60986519Y-54144866D01*
X60701571Y-54262604D01*
X60483370Y-54480425D01*
X60365135Y-54765167D01*
X60364866Y-55073481D01*
X60418377Y-55202988D01*
X60417195Y-55209759D01*
X60301102Y-55093666D01*
X60216469Y-55178299D01*
X60240000Y-55060000D01*
X60205746Y-54887793D01*
X60108198Y-54741802D01*
X60098198Y-54731802D01*
X59952207Y-54634254D01*
X59780000Y-54600000D01*
X59607793Y-54634254D01*
X59461802Y-54731802D01*
X59364254Y-54877793D01*
X59330000Y-55050000D01*
X55128295Y-55050000D01*
X55132346Y-55030000D01*
X55132346Y-53530000D01*
X55106198Y-53391034D01*
X55024069Y-53263401D01*
X55011774Y-53255000D01*
X55481766Y-53255000D01*
X55493802Y-53318966D01*
X55575931Y-53446599D01*
X55701246Y-53532223D01*
X55850000Y-53562346D01*
X60350000Y-53562346D01*
X60488966Y-53536198D01*
X60616599Y-53454069D01*
X60702223Y-53328754D01*
X60732346Y-53180000D01*
X60732346Y-52180000D01*
X60706198Y-52041034D01*
X60624069Y-51913401D01*
X60498754Y-51827777D01*
X60425782Y-51813000D01*
X60475912Y-51813000D01*
X60708566Y-51716631D01*
X60886632Y-51538565D01*
X60983000Y-51305911D01*
X60983000Y-50967250D01*
X60824750Y-50809000D01*
X58229000Y-50809000D01*
X58229000Y-50829000D01*
X57971000Y-50829000D01*
X57971000Y-50809000D01*
X55375250Y-50809000D01*
X55217000Y-50967250D01*
X55217000Y-51305911D01*
X55313368Y-51538565D01*
X55491434Y-51716631D01*
X55724088Y-51813000D01*
X55768442Y-51813000D01*
X55711034Y-51823802D01*
X55583401Y-51905931D01*
X55497777Y-52031246D01*
X55482842Y-52105000D01*
X53588813Y-52105000D01*
X53587396Y-52101571D01*
X53369575Y-51883370D01*
X53084833Y-51765135D01*
X52776519Y-51764866D01*
X52491571Y-51882604D01*
X52273370Y-52100425D01*
X52155135Y-52385167D01*
X52154866Y-52693481D01*
X52272604Y-52978429D01*
X52441534Y-53147654D01*
X51450000Y-53147654D01*
X51450000Y-50212346D01*
X54750000Y-50212346D01*
X54888966Y-50186198D01*
X55016599Y-50104069D01*
X55050748Y-50054089D01*
X55217000Y-50054089D01*
X55217000Y-50392750D01*
X55375250Y-50551000D01*
X57971000Y-50551000D01*
X57971000Y-49705250D01*
X58229000Y-49705250D01*
X58229000Y-50551000D01*
X60824750Y-50551000D01*
X60983000Y-50392750D01*
X60983000Y-50054089D01*
X60886632Y-49821435D01*
X60708566Y-49643369D01*
X60475912Y-49547000D01*
X58387250Y-49547000D01*
X58229000Y-49705250D01*
X57971000Y-49705250D01*
X57812750Y-49547000D01*
X55724088Y-49547000D01*
X55491434Y-49643369D01*
X55313368Y-49821435D01*
X55217000Y-50054089D01*
X55050748Y-50054089D01*
X55102223Y-49978754D01*
X55132346Y-49830000D01*
X55132346Y-48450000D01*
X64125000Y-48450000D01*
X64125000Y-52750000D01*
G36*
X68771986Y-55926673D02*
X68787307Y-56021005D01*
X68792091Y-56029325D01*
X68767654Y-56150000D01*
X68767654Y-56450000D01*
X68787161Y-56553671D01*
X68767654Y-56650000D01*
X68767654Y-56950000D01*
X68787161Y-57053671D01*
X68767654Y-57150000D01*
X68767654Y-57450000D01*
X68787161Y-57553671D01*
X68767654Y-57650000D01*
X68767654Y-57950000D01*
X68787161Y-58053671D01*
X68767654Y-58150000D01*
X68767654Y-58450000D01*
X68768675Y-58455424D01*
X68675912Y-58417000D01*
X68633250Y-58417000D01*
X68475000Y-58575250D01*
X68475000Y-58858348D01*
X68455645Y-58883842D01*
X68424244Y-59006942D01*
X68406198Y-58911034D01*
X68325000Y-58784848D01*
X68325000Y-58575250D01*
X68166750Y-58417000D01*
X68124088Y-58417000D01*
X67894886Y-58511939D01*
X67895117Y-58246323D01*
X67792571Y-57998143D01*
X67602856Y-57808097D01*
X67354855Y-57705117D01*
X67086323Y-57704883D01*
X66892353Y-57785030D01*
X66904883Y-57754855D01*
X66905014Y-57605040D01*
X66993677Y-57605117D01*
X67241857Y-57502571D01*
X67431903Y-57312856D01*
X67534883Y-57064855D01*
X67535109Y-56805083D01*
X67573677Y-56805117D01*
X67821857Y-56702571D01*
X68011903Y-56512856D01*
X68114883Y-56264855D01*
X68115117Y-55996323D01*
X68085892Y-55925593D01*
X68153671Y-55912839D01*
X68250000Y-55932346D01*
X68550000Y-55932346D01*
X68679589Y-55907962D01*
X68771986Y-55926673D01*
X68771986Y-55926673D01*
G37*
X68771986Y-55926673D02*
X68787307Y-56021005D01*
X68792091Y-56029325D01*
X68767654Y-56150000D01*
X68767654Y-56450000D01*
X68787161Y-56553671D01*
X68767654Y-56650000D01*
X68767654Y-56950000D01*
X68787161Y-57053671D01*
X68767654Y-57150000D01*
X68767654Y-57450000D01*
X68787161Y-57553671D01*
X68767654Y-57650000D01*
X68767654Y-57950000D01*
X68787161Y-58053671D01*
X68767654Y-58150000D01*
X68767654Y-58450000D01*
X68768675Y-58455424D01*
X68675912Y-58417000D01*
X68633250Y-58417000D01*
X68475000Y-58575250D01*
X68475000Y-58858348D01*
X68455645Y-58883842D01*
X68424244Y-59006942D01*
X68406198Y-58911034D01*
X68325000Y-58784848D01*
X68325000Y-58575250D01*
X68166750Y-58417000D01*
X68124088Y-58417000D01*
X67894886Y-58511939D01*
X67895117Y-58246323D01*
X67792571Y-57998143D01*
X67602856Y-57808097D01*
X67354855Y-57705117D01*
X67086323Y-57704883D01*
X66892353Y-57785030D01*
X66904883Y-57754855D01*
X66905014Y-57605040D01*
X66993677Y-57605117D01*
X67241857Y-57502571D01*
X67431903Y-57312856D01*
X67534883Y-57064855D01*
X67535109Y-56805083D01*
X67573677Y-56805117D01*
X67821857Y-56702571D01*
X68011903Y-56512856D01*
X68114883Y-56264855D01*
X68115117Y-55996323D01*
X68085892Y-55925593D01*
X68153671Y-55912839D01*
X68250000Y-55932346D01*
X68550000Y-55932346D01*
X68679589Y-55907962D01*
X68771986Y-55926673D01*
G36*
X74554000Y-55825000D02*
X74574000Y-55825000D01*
X74574000Y-56075000D01*
X74554000Y-56075000D01*
X74554000Y-57025000D01*
X74574000Y-57025000D01*
X74574000Y-57275000D01*
X74554000Y-57275000D01*
X74554000Y-57299000D01*
X74296000Y-57299000D01*
X74296000Y-57275000D01*
X74276000Y-57275000D01*
X74276000Y-57025000D01*
X74296000Y-57025000D01*
X74296000Y-56075000D01*
X74276000Y-56075000D01*
X74276000Y-55825000D01*
X74296000Y-55825000D01*
X74296000Y-55801000D01*
X74554000Y-55801000D01*
X74554000Y-55825000D01*
X74554000Y-55825000D01*
G37*
X74554000Y-55825000D02*
X74574000Y-55825000D01*
X74574000Y-56075000D01*
X74554000Y-56075000D01*
X74554000Y-57025000D01*
X74574000Y-57025000D01*
X74574000Y-57275000D01*
X74554000Y-57275000D01*
X74554000Y-57299000D01*
X74296000Y-57299000D01*
X74296000Y-57275000D01*
X74276000Y-57275000D01*
X74276000Y-57025000D01*
X74296000Y-57025000D01*
X74296000Y-56075000D01*
X74276000Y-56075000D01*
X74276000Y-55825000D01*
X74296000Y-55825000D01*
X74296000Y-55801000D01*
X74554000Y-55801000D01*
X74554000Y-55825000D01*
G36*
X71325000Y-53821000D02*
X71349000Y-53821000D01*
X71349000Y-54079000D01*
X71325000Y-54079000D01*
X71325000Y-54099000D01*
X71075000Y-54099000D01*
X71075000Y-54079000D01*
X70475250Y-54079000D01*
X70394252Y-54159998D01*
X69736396Y-54159998D01*
X69558200Y-53981802D01*
X69533111Y-53965038D01*
X69623677Y-53965117D01*
X69871857Y-53862571D01*
X69929528Y-53805000D01*
X70459250Y-53805000D01*
X70475250Y-53821000D01*
X71075000Y-53821000D01*
X71075000Y-53801000D01*
X71325000Y-53801000D01*
X71325000Y-53821000D01*
X71325000Y-53821000D01*
G37*
X71325000Y-53821000D02*
X71349000Y-53821000D01*
X71349000Y-54079000D01*
X71325000Y-54079000D01*
X71325000Y-54099000D01*
X71075000Y-54099000D01*
X71075000Y-54079000D01*
X70475250Y-54079000D01*
X70394252Y-54159998D01*
X69736396Y-54159998D01*
X69558200Y-53981802D01*
X69533111Y-53965038D01*
X69623677Y-53965117D01*
X69871857Y-53862571D01*
X69929528Y-53805000D01*
X70459250Y-53805000D01*
X70475250Y-53821000D01*
X71075000Y-53821000D01*
X71075000Y-53801000D01*
X71325000Y-53801000D01*
X71325000Y-53821000D01*
M02*
