M48
;DRILL file {KiCad 4.0.1-stable} date 27/01/2016 21:23:15
;FORMAT={-:-/ absolute / inch / decimal}
FMAT,2
INCH,TZ
T1C0.012
T2C0.020
T3C0.028
T4C0.039
%
G90
G05
M72
T1
X2.0354Y-2.2382
X2.0541Y-2.498
X2.0937Y-2.3236
X2.1209Y-2.3378
X2.1437Y-2.4951
X2.1703Y-2.4262
X2.1841Y-2.2657
X2.2598Y-2.2726
X2.261Y-2.3043
X2.2992Y-2.0354
X2.3071Y-2.189
X2.31Y-2.1545
X2.315Y-2.4024
X2.3396Y-2.1467
X2.3543Y-2.2972
X2.3543Y-2.3317
X2.4862Y-2.3803
X2.5205Y-2.4736
X2.5384Y-2.1388
X2.548Y-2.1673
X2.5661Y-2.3453
X2.6075Y-2.2685
X2.6323Y-2.2413
X2.6465Y-2.2984
X2.6551Y-2.2098
X2.6972Y-2.4752
X2.7335Y-2.4772
X2.7358Y-2.098
X2.7551Y-2.1264
X2.8104Y-2.473
X2.8614Y-2.4165
X2.8732Y-2.0303
X2.8789Y-2.2126
X2.8809Y-2.2628
X2.8839Y-2.1713
X2.8882Y-2.1213
X2.9083Y-2.2783
X2.9242Y-2.2264
X2.9299Y-2.1701
X2.9323Y-2.3142
X2.9324Y-2.4564
X2.9339Y-2.0756
X2.9575Y-2.1307
X2.9774Y-2.3514
X3.0413Y-2.2638
X3.0413Y-2.313
X3.0417Y-2.2256
X3.0488Y-2.4539
X3.0528Y-2.0563
X3.0709Y-2.2835
X3.077Y-2.197
X3.0787Y-2.4701
X3.0876Y-2.3199
X3.0882Y-2.0583
X3.1114Y-2.4587
X3.1122Y-2.2805
X3.1152Y-2.3199
X3.1366Y-2.4244
X3.1437Y-2.4705
X3.1476Y-2.2805
X3.1506Y-2.3209
X3.1559Y-1.9846
X3.1693Y-2.2441
X3.1821Y-2.2805
X3.1841Y-2.3209
X3.189Y-2.2047
X3.2411Y-2.3465
X3.2579Y-1.9587
X3.2776Y-2.3455
X3.2982Y-1.9124
X3.3169Y-2.0472
X3.3169Y-2.3957
X3.3199Y-2.1673
X3.3307Y-2.3287
X3.3602Y-2.3967
X3.378Y-2.3209
X3.3858Y-2.1654
X3.3898Y-1.9528
X3.4252Y-2.1654
X3.4291Y-2.4429
X3.435Y-2.2067
X3.439Y-2.2894
X3.4469Y-2.3238
X3.4646Y-2.1654
X3.4744Y-1.9587
X3.4744Y-1.998
X3.4744Y-2.0472
X3.4744Y-2.0866
X3.4783Y-2.4823
X3.4803Y-2.2894
X3.4813Y-2.4006
X3.4823Y-2.2057
X3.4823Y-2.3228
X3.4823Y-2.4341
X3.4843Y-1.9301
T2
X2.0839Y-2.0685
X2.085Y-2.0209
X2.0886Y-2.252
X2.1031Y-2.2071
X2.1646Y-2.022
X2.1795Y-2.172
X2.1819Y-2.352
X2.2352Y-2.1742
X2.2923Y-2.2687
X2.3236Y-1.9531
X2.3307Y-1.9201
X2.374Y-1.9228
X2.3992Y-2.0335
X2.4039Y-1.9504
X2.4055Y-1.9949
X2.4071Y-2.1622
X2.6976Y-2.2937
X2.8839Y-1.9606
X2.8839Y-1.9616
X2.8937Y-1.9193
X2.9331Y-1.9193
X2.9724Y-1.9193
X3.0118Y-1.9193
X3.0364Y-2.0246
X3.0512Y-1.9193
X3.0906Y-1.9193
X3.1299Y-1.9193
X3.1693Y-1.9193
X3.2087Y-1.9193
X3.2185Y-2.0669
X3.2185Y-2.1063
X3.248Y-1.9193
X3.2579Y-2.0669
X3.2579Y-2.1063
X3.262Y-2.4514
X3.3327Y-2.0079
X3.4039Y-2.2913
T3
X2.4026Y-2.2047
X2.4026Y-2.2547
X2.4026Y-2.3047
X2.4026Y-2.3547
X2.4026Y-2.4047
X2.4026Y-2.4547
T4
X3.3504Y-1.9262
X3.4291Y-1.9262
T0
M30
