G04 #@! TF.FileFunction,Soldermask,Bot*
%FSLAX46Y46*%
G04 Gerber Fmt 4.6, Leading zero omitted, Abs format (unit mm)*
G04 Created by KiCad (PCBNEW 4.0.1-stable) date 27/01/2016 21:23:12*
%MOMM*%
G01*
G04 APERTURE LIST*
%ADD10C,0.100000*%
%ADD11R,1.000000X0.800000*%
%ADD12R,4.900000X1.400000*%
%ADD13R,3.800000X1.900000*%
%ADD14R,1.000000X0.900000*%
%ADD15R,0.900000X1.000000*%
%ADD16R,1.150000X1.200000*%
%ADD17C,1.900000*%
%ADD18C,1.400000*%
%ADD19R,0.800000X1.000000*%
%ADD20R,1.900000X1.400000*%
%ADD21R,0.700000X1.400000*%
%ADD22R,1.400000X0.700000*%
G04 APERTURE END LIST*
D10*
D11*
X68700000Y-61750000D03*
X68700000Y-60850000D03*
D12*
X58100000Y-52680000D03*
X58100000Y-50680000D03*
D13*
X53050000Y-54280000D03*
X53050000Y-49080000D03*
D14*
X79300000Y-56500000D03*
X78200000Y-56500000D03*
D15*
X76000000Y-53950000D03*
X76000000Y-55050000D03*
X67200000Y-60750000D03*
X67200000Y-61850000D03*
X71200000Y-52850000D03*
X71200000Y-53950000D03*
D14*
X73325000Y-55950000D03*
X74425000Y-55950000D03*
X73325000Y-57150000D03*
X74425000Y-57150000D03*
D16*
X55725000Y-60800000D03*
X55725000Y-62300000D03*
X70000000Y-60850000D03*
X70000000Y-62350000D03*
D17*
X87100000Y-48925000D03*
X85100000Y-48925000D03*
D18*
X61025000Y-62350000D03*
X61025000Y-61080000D03*
X61025000Y-59810000D03*
X61025000Y-58540000D03*
X61025000Y-57270000D03*
X61025000Y-56000000D03*
D11*
X72600000Y-52950000D03*
X72600000Y-53850000D03*
D19*
X67150000Y-53300000D03*
X68050000Y-53300000D03*
X58550000Y-60000000D03*
X59450000Y-60000000D03*
D20*
X77500000Y-53850000D03*
X77500000Y-55150000D03*
X79500000Y-53850000D03*
X79500000Y-55150000D03*
D10*
G36*
X65550000Y-54350000D02*
X66250000Y-54350000D01*
X66200000Y-55750000D01*
X65600000Y-55750000D01*
X65550000Y-54350000D01*
X65550000Y-54350000D01*
G37*
D21*
X66400000Y-55050000D03*
X66900000Y-55050000D03*
X67400000Y-55050000D03*
X67900000Y-55050000D03*
X68400000Y-55050000D03*
D10*
G36*
X68550000Y-54350000D02*
X69250000Y-54350000D01*
X69200000Y-55750000D01*
X68600000Y-55750000D01*
X68550000Y-54350000D01*
X68550000Y-54350000D01*
G37*
G36*
X70350000Y-55450000D02*
X70350000Y-56150000D01*
X68950000Y-56100000D01*
X68950000Y-55500000D01*
X70350000Y-55450000D01*
X70350000Y-55450000D01*
G37*
D22*
X69650000Y-56300000D03*
X69650000Y-56800000D03*
X69650000Y-57300000D03*
X69650000Y-57800000D03*
X69650000Y-58300000D03*
D10*
G36*
X70350000Y-58450000D02*
X70350000Y-59150000D01*
X68950000Y-59100000D01*
X68950000Y-58500000D01*
X70350000Y-58450000D01*
X70350000Y-58450000D01*
G37*
G36*
X69250000Y-60250000D02*
X68550000Y-60250000D01*
X68600000Y-58850000D01*
X69200000Y-58850000D01*
X69250000Y-60250000D01*
X69250000Y-60250000D01*
G37*
D21*
X68400000Y-59550000D03*
X67900000Y-59550000D03*
X67400000Y-59550000D03*
X66900000Y-59550000D03*
X66400000Y-59550000D03*
D10*
G36*
X66250000Y-60250000D02*
X65550000Y-60250000D01*
X65600000Y-58850000D01*
X66200000Y-58850000D01*
X66250000Y-60250000D01*
X66250000Y-60250000D01*
G37*
G36*
X64450000Y-59150000D02*
X64450000Y-58450000D01*
X65850000Y-58500000D01*
X65850000Y-59100000D01*
X64450000Y-59150000D01*
X64450000Y-59150000D01*
G37*
D22*
X65150000Y-58300000D03*
X65150000Y-57800000D03*
X65150000Y-57300000D03*
X65150000Y-56800000D03*
X65150000Y-56300000D03*
D10*
G36*
X64450000Y-56150000D02*
X64450000Y-55450000D01*
X65850000Y-55500000D01*
X65850000Y-56100000D01*
X64450000Y-56150000D01*
X64450000Y-56150000D01*
G37*
M02*
