G04 #@! TF.FileFunction,Legend,Top*
%FSLAX46Y46*%
G04 Gerber Fmt 4.6, Leading zero omitted, Abs format (unit mm)*
G04 Created by KiCad (PCBNEW 4.0.1-stable) date 28/01/2016 21:23:27*
%MOMM*%
G01*
G04 APERTURE LIST*
%ADD10C,0.100000*%
%ADD11C,0.150000*%
G04 APERTURE END LIST*
D10*
D11*
X71450000Y-63725000D02*
X71950000Y-63725000D01*
X71950000Y-62675000D02*
X71450000Y-62675000D01*
X56400000Y-64050000D02*
X56900000Y-64050000D01*
X56900000Y-64050000D02*
X56650000Y-63550000D01*
X56650000Y-63550000D02*
X56400000Y-64050000D01*
X56400000Y-62800000D02*
X58400000Y-62800000D01*
X58400000Y-62800000D02*
X58400000Y-59800000D01*
X58400000Y-59800000D02*
X56400000Y-59800000D01*
X56400000Y-59800000D02*
X56400000Y-62800000D01*
X85500000Y-61150000D02*
X84500000Y-61150000D01*
X84500000Y-62850000D02*
X85500000Y-62850000D01*
X87325000Y-56350000D02*
X87325000Y-56850000D01*
X88275000Y-56850000D02*
X88275000Y-56350000D01*
X74375000Y-60050000D02*
X74375000Y-59550000D01*
X73425000Y-59550000D02*
X73425000Y-60050000D01*
X77725000Y-49900000D02*
X77725000Y-50400000D01*
X78675000Y-50400000D02*
X78675000Y-49900000D01*
X85755000Y-58820000D02*
X85755000Y-58320000D01*
X84805000Y-58320000D02*
X84805000Y-58820000D01*
X80425000Y-49900000D02*
X80425000Y-50400000D01*
X81375000Y-50400000D02*
X81375000Y-49900000D01*
X82675000Y-51975000D02*
X83175000Y-51975000D01*
X83175000Y-51025000D02*
X82675000Y-51025000D01*
X84525000Y-56600000D02*
X84525000Y-56100000D01*
X83575000Y-56100000D02*
X83575000Y-56600000D01*
X82950000Y-49525000D02*
X82950000Y-50025000D01*
X83900000Y-50025000D02*
X83900000Y-49525000D01*
X87075000Y-56850000D02*
X87075000Y-56350000D01*
X86125000Y-56350000D02*
X86125000Y-56850000D01*
X85250000Y-53000000D02*
X85250000Y-53500000D01*
X86200000Y-53500000D02*
X86200000Y-53000000D01*
X87725000Y-53675000D02*
X87225000Y-53675000D01*
X87225000Y-54625000D02*
X87725000Y-54625000D01*
X84950000Y-52000000D02*
X85450000Y-52000000D01*
X85450000Y-51050000D02*
X84950000Y-51050000D01*
X84950000Y-50800000D02*
X85450000Y-50800000D01*
X85450000Y-49850000D02*
X84950000Y-49850000D01*
X86990000Y-59460000D02*
X87690000Y-59460000D01*
X87690000Y-60660000D02*
X86990000Y-60660000D01*
X61550000Y-53525000D02*
X61550000Y-53025000D01*
X60600000Y-53025000D02*
X60600000Y-53525000D01*
X84515000Y-58850000D02*
X84515000Y-58350000D01*
X83565000Y-58350000D02*
X83565000Y-58850000D01*
X60030000Y-56120000D02*
X60030000Y-56820000D01*
X58830000Y-56820000D02*
X58830000Y-56120000D01*
X78950000Y-50650000D02*
X78950000Y-49950000D01*
X80150000Y-49950000D02*
X80150000Y-50650000D01*
X55450000Y-51375000D02*
X54450000Y-51375000D01*
X54450000Y-53075000D02*
X55450000Y-53075000D01*
X52650000Y-58850000D02*
X53650000Y-58850000D01*
X53650000Y-57150000D02*
X52650000Y-57150000D01*
X75200000Y-62550000D02*
X73300000Y-62550000D01*
X75200000Y-63650000D02*
X73300000Y-63650000D01*
X74300000Y-63100000D02*
X73850000Y-63100000D01*
X74350000Y-63350000D02*
X74350000Y-62850000D01*
X74350000Y-63100000D02*
X74100000Y-63350000D01*
X74100000Y-63350000D02*
X74100000Y-62850000D01*
X74100000Y-62850000D02*
X74350000Y-63100000D01*
X51550000Y-48500000D02*
X51550000Y-50400000D01*
X52650000Y-48500000D02*
X52650000Y-50400000D01*
X52100000Y-49400000D02*
X52100000Y-49850000D01*
X52350000Y-49350000D02*
X51850000Y-49350000D01*
X52100000Y-49350000D02*
X52350000Y-49600000D01*
X52350000Y-49600000D02*
X51850000Y-49600000D01*
X51850000Y-49600000D02*
X52100000Y-49350000D01*
X82675000Y-50200000D02*
X82675000Y-49700000D01*
X81625000Y-49700000D02*
X81625000Y-50200000D01*
X84775000Y-56150000D02*
X84775000Y-56650000D01*
X85825000Y-56650000D02*
X85825000Y-56150000D01*
X84400000Y-52250000D02*
X83900000Y-52250000D01*
X83900000Y-53300000D02*
X84400000Y-53300000D01*
X86500000Y-52350000D02*
X86500000Y-52850000D01*
X87550000Y-52850000D02*
X87550000Y-52350000D01*
X86500000Y-50425000D02*
X86500000Y-50925000D01*
X87550000Y-50925000D02*
X87550000Y-50425000D01*
X59750000Y-52075000D02*
X59250000Y-52075000D01*
X59250000Y-53125000D02*
X59750000Y-53125000D01*
X59750000Y-53375000D02*
X59250000Y-53375000D01*
X59250000Y-54425000D02*
X59750000Y-54425000D01*
X80925000Y-62900000D02*
X81425000Y-62900000D01*
X81425000Y-61850000D02*
X80925000Y-61850000D01*
X75680000Y-51435000D02*
X75180000Y-51435000D01*
X75180000Y-52485000D02*
X75680000Y-52485000D01*
X84000000Y-54575000D02*
X84500000Y-54575000D01*
X84500000Y-53525000D02*
X84000000Y-53525000D01*
X64850000Y-63725000D02*
X65350000Y-63725000D01*
X65350000Y-62675000D02*
X64850000Y-62675000D01*
X67550000Y-62675000D02*
X67050000Y-62675000D01*
X67050000Y-63725000D02*
X67550000Y-63725000D01*
X51375000Y-59950000D02*
X51375000Y-60450000D01*
X52425000Y-60450000D02*
X52425000Y-59950000D01*
X52425000Y-62550000D02*
X52425000Y-62050000D01*
X51375000Y-62050000D02*
X51375000Y-62550000D01*
X52625000Y-52340000D02*
X52625000Y-51840000D01*
X51575000Y-51840000D02*
X51575000Y-52340000D01*
X81600000Y-54000000D02*
X82000000Y-54400000D01*
X82000000Y-59600000D02*
X82000000Y-60000000D01*
X82000000Y-60000000D02*
X81600000Y-60000000D01*
X76000000Y-54400000D02*
X76000000Y-54000000D01*
X76000000Y-54000000D02*
X76400000Y-54000000D01*
X76000000Y-59600000D02*
X76000000Y-60000000D01*
X76000000Y-60000000D02*
X76400000Y-60000000D01*
X72025000Y-48025000D02*
X72025000Y-61775000D01*
X72025000Y-61775000D02*
X62525000Y-61775000D01*
X62525000Y-61775000D02*
X62525000Y-48025000D01*
X62525000Y-48025000D02*
X72025000Y-48025000D01*
X64300000Y-52800000D02*
X70275000Y-47925000D01*
X64275000Y-47925000D02*
X70275000Y-47925000D01*
X70275000Y-47925000D02*
X70275000Y-52800000D01*
X70275000Y-52800000D02*
X64275000Y-52800000D01*
X64275000Y-52800000D02*
X64275000Y-47925000D01*
X64275000Y-47925000D02*
X70275000Y-52800000D01*
X56900000Y-60000000D02*
X56900000Y-61000000D01*
X56900000Y-61000000D02*
X56400000Y-60500000D01*
X56400000Y-60500000D02*
X56900000Y-60000000D01*
X55900000Y-60000000D02*
X55900000Y-63000000D01*
X55900000Y-63000000D02*
X52900000Y-63000000D01*
X52900000Y-63000000D02*
X52900000Y-60000000D01*
X52900000Y-60000000D02*
X55900000Y-60000000D01*
X53225000Y-53375000D02*
G75*
G03X53225000Y-53375000I-100000J0D01*
G01*
X53675000Y-53625000D02*
X53175000Y-53625000D01*
X53675000Y-56525000D02*
X53675000Y-53625000D01*
X53175000Y-56525000D02*
X53675000Y-56525000D01*
X53175000Y-53625000D02*
X53175000Y-56525000D01*
M02*
