G04 #@! TF.FileFunction,Legend,Bot*
%FSLAX46Y46*%
G04 Gerber Fmt 4.6, Leading zero omitted, Abs format (unit mm)*
G04 Created by KiCad (PCBNEW 4.0.1-stable) date 28/01/2016 21:23:27*
%MOMM*%
G01*
G04 APERTURE LIST*
%ADD10C,0.100000*%
%ADD11C,0.150000*%
G04 APERTURE END LIST*
D10*
D11*
X69225000Y-61050000D02*
X69225000Y-61550000D01*
X68175000Y-61550000D02*
X68175000Y-61050000D01*
X78500000Y-56025000D02*
X79000000Y-56025000D01*
X79000000Y-56975000D02*
X78500000Y-56975000D01*
X75525000Y-54750000D02*
X75525000Y-54250000D01*
X76475000Y-54250000D02*
X76475000Y-54750000D01*
X66725000Y-61550000D02*
X66725000Y-61050000D01*
X67675000Y-61050000D02*
X67675000Y-61550000D01*
X70725000Y-53650000D02*
X70725000Y-53150000D01*
X71675000Y-53150000D02*
X71675000Y-53650000D01*
X74125000Y-56425000D02*
X73625000Y-56425000D01*
X73625000Y-55475000D02*
X74125000Y-55475000D01*
X74125000Y-57625000D02*
X73625000Y-57625000D01*
X73625000Y-56675000D02*
X74125000Y-56675000D01*
X55125000Y-61200000D02*
X55125000Y-61900000D01*
X56325000Y-61900000D02*
X56325000Y-61200000D01*
X69400000Y-61250000D02*
X69400000Y-61950000D01*
X70600000Y-61950000D02*
X70600000Y-61250000D01*
X72075000Y-53650000D02*
X72075000Y-53150000D01*
X73125000Y-53150000D02*
X73125000Y-53650000D01*
X67850000Y-53825000D02*
X67350000Y-53825000D01*
X67350000Y-52775000D02*
X67850000Y-52775000D01*
X59250000Y-60525000D02*
X58750000Y-60525000D01*
X58750000Y-59475000D02*
X59250000Y-59475000D01*
X80700000Y-54900000D02*
X80700000Y-55300000D01*
X80700000Y-55300000D02*
X80400000Y-55100000D01*
X80400000Y-55100000D02*
X80700000Y-54900000D01*
X79750000Y-54450000D02*
X79750000Y-54550000D01*
X77250000Y-54450000D02*
X77250000Y-54550000D01*
X78350000Y-55500000D02*
X78650000Y-55500000D01*
X78650000Y-53500000D02*
X78350000Y-53500000D01*
X65400000Y-53550000D02*
X66400000Y-53550000D01*
X66400000Y-53550000D02*
X65900000Y-54300000D01*
X65900000Y-54300000D02*
X65400000Y-53550000D01*
X69400000Y-55300000D02*
X69400000Y-59300000D01*
X69400000Y-59300000D02*
X65400000Y-59300000D01*
X65400000Y-59300000D02*
X65400000Y-55300000D01*
X65400000Y-55300000D02*
X69400000Y-55300000D01*
M02*
