G04 #@! TF.FileFunction,Soldermask,Top*
%FSLAX46Y46*%
G04 Gerber Fmt 4.6, Leading zero omitted, Abs format (unit mm)*
G04 Created by KiCad (PCBNEW 4.0.1-stable) date 28/01/2016 21:23:27*
%MOMM*%
G01*
G04 APERTURE LIST*
%ADD10C,0.100000*%
%ADD11R,0.800000X1.000000*%
%ADD12R,0.720000X1.300000*%
%ADD13R,1.960000X1.460000*%
%ADD14R,1.400000X1.650000*%
%ADD15R,0.900000X1.000000*%
%ADD16R,1.000000X0.900000*%
%ADD17R,1.200000X1.150000*%
%ADD18R,1.150000X1.200000*%
%ADD19R,1.197560X1.197560*%
%ADD20R,1.000000X0.800000*%
%ADD21R,2.940000X1.421080*%
%ADD22C,1.900000*%
%ADD23R,0.680000X1.200000*%
%ADD24R,0.700000X1.900000*%
%ADD25R,1.900000X0.700000*%
%ADD26R,5.200000X5.200000*%
%ADD27R,2.400000X1.100000*%
%ADD28R,1.100000X2.400000*%
%ADD29R,1.400000X1.400000*%
%ADD30R,1.460000X1.050000*%
%ADD31C,1.400000*%
G04 APERTURE END LIST*
D10*
D11*
X72150000Y-63200000D03*
X71250000Y-63200000D03*
D12*
X56650000Y-62800000D03*
X57150000Y-62800000D03*
X57650000Y-62800000D03*
X58150000Y-62800000D03*
X58150000Y-59800000D03*
X57650000Y-59800000D03*
X57150000Y-59800000D03*
X56650000Y-59800000D03*
D13*
X57400000Y-61300000D03*
D14*
X84000000Y-62000000D03*
X86000000Y-62000000D03*
D15*
X87800000Y-57150000D03*
X87800000Y-56050000D03*
X73900000Y-59250000D03*
X73900000Y-60350000D03*
X78200000Y-50700000D03*
X78200000Y-49600000D03*
X85280000Y-58020000D03*
X85280000Y-59120000D03*
X80900000Y-50700000D03*
X80900000Y-49600000D03*
D16*
X83475000Y-51500000D03*
X82375000Y-51500000D03*
D15*
X84050000Y-55800000D03*
X84050000Y-56900000D03*
X83425000Y-50325000D03*
X83425000Y-49225000D03*
X86600000Y-56050000D03*
X86600000Y-57150000D03*
X85725000Y-53800000D03*
X85725000Y-52700000D03*
D16*
X86925000Y-54150000D03*
X88025000Y-54150000D03*
X85750000Y-51525000D03*
X84650000Y-51525000D03*
X85750000Y-50325000D03*
X84650000Y-50325000D03*
D17*
X86590000Y-60060000D03*
X88090000Y-60060000D03*
D15*
X61075000Y-52725000D03*
X61075000Y-53825000D03*
X84040000Y-58050000D03*
X84040000Y-59150000D03*
D18*
X59430000Y-55720000D03*
X59430000Y-57220000D03*
X79550000Y-51050000D03*
X79550000Y-49550000D03*
D14*
X53950000Y-52225000D03*
X55950000Y-52225000D03*
X54150000Y-58000000D03*
X52150000Y-58000000D03*
D19*
X73350700Y-63100000D03*
X74849300Y-63100000D03*
X52100000Y-50349300D03*
X52100000Y-48850700D03*
D20*
X82150000Y-49500000D03*
X82150000Y-50400000D03*
X85300000Y-56850000D03*
X85300000Y-55950000D03*
D11*
X83700000Y-52775000D03*
X84600000Y-52775000D03*
D20*
X87025000Y-53050000D03*
X87025000Y-52150000D03*
X87025000Y-51125000D03*
X87025000Y-50225000D03*
D11*
X59050000Y-52600000D03*
X59950000Y-52600000D03*
X59050000Y-53900000D03*
X59950000Y-53900000D03*
D21*
X56825000Y-56370540D03*
X56825000Y-54079460D03*
D22*
X87100000Y-48925000D03*
X85100000Y-48925000D03*
D23*
X87100000Y-49925000D03*
D11*
X81625000Y-62375000D03*
X80725000Y-62375000D03*
X74980000Y-51960000D03*
X75880000Y-51960000D03*
X84700000Y-54050000D03*
X83800000Y-54050000D03*
X65550000Y-63200000D03*
X64650000Y-63200000D03*
X66850000Y-63200000D03*
X67750000Y-63200000D03*
D20*
X51900000Y-60650000D03*
X51900000Y-59750000D03*
X51900000Y-61850000D03*
X51900000Y-62750000D03*
X52100000Y-51640000D03*
X52100000Y-52540000D03*
D24*
X80950000Y-53550000D03*
X80300000Y-53550000D03*
X79650000Y-53550000D03*
X79000000Y-53550000D03*
X78350000Y-53550000D03*
X77700000Y-53550000D03*
X77050000Y-53550000D03*
D25*
X75550000Y-55050000D03*
X75550000Y-55700000D03*
X75550000Y-56350000D03*
X75550000Y-57000000D03*
X75550000Y-57650000D03*
X75550000Y-58300000D03*
X75550000Y-58950000D03*
D24*
X77050000Y-60450000D03*
X77700000Y-60450000D03*
X78350000Y-60450000D03*
X79000000Y-60450000D03*
X79650000Y-60450000D03*
X80300000Y-60450000D03*
X80950000Y-60450000D03*
D25*
X82450000Y-58950000D03*
X82450000Y-58300000D03*
X82450000Y-57650000D03*
X82450000Y-57000000D03*
X82450000Y-56350000D03*
X82450000Y-55700000D03*
X82450000Y-55050000D03*
D26*
X79000000Y-57000000D03*
D27*
X62955000Y-48525000D03*
X62955000Y-49625000D03*
X62955000Y-50725000D03*
X62955000Y-51825000D03*
X62955000Y-52925000D03*
X62955000Y-54025000D03*
X62955000Y-55125000D03*
X62955000Y-56225000D03*
X62955000Y-57325000D03*
X62955000Y-58425000D03*
X62955000Y-59525000D03*
X71595000Y-59525000D03*
X71595000Y-58425000D03*
X71595000Y-57325000D03*
X71595000Y-56225000D03*
X71595000Y-55125000D03*
X71595000Y-54025000D03*
X71595000Y-52925000D03*
X71595000Y-51825000D03*
X71595000Y-50725000D03*
X71595000Y-49625000D03*
X71595000Y-48525000D03*
D28*
X64525000Y-61325000D03*
X65625000Y-61325000D03*
X66725000Y-61325000D03*
X67825000Y-61325000D03*
X68925000Y-61325000D03*
X70025000Y-61325000D03*
D29*
X55400000Y-60500000D03*
X53400000Y-60500000D03*
X53400000Y-62500000D03*
X55400000Y-62500000D03*
D30*
X52325000Y-54125000D03*
X52325000Y-55075000D03*
X52325000Y-56025000D03*
X54525000Y-56025000D03*
X54525000Y-54125000D03*
D31*
X61025000Y-62350000D03*
X61088500Y-61080000D03*
X60961500Y-59810000D03*
X60961500Y-58540000D03*
X61088500Y-57270000D03*
X61025000Y-56000000D03*
M02*
